# Tiled2Unity generated file. Do not modify by hand.
# Wavefront file for 'level0_mesh_0006.obj'

# Vertices (Count = 248)
v -3 -84 0
v -4 -84 0
v -4 -83 0
v -3 -83 0
v -4 -84 0
v -5 -84 0
v -5 -83 0
v -4 -83 0
v -5 -84 0
v -6 -84 0
v -6 -83 0
v -5 -83 0
v -6 -84 0
v -7 -84 0
v -7 -83 0
v -6 -83 0
v -7 -84 0
v -8 -84 0
v -8 -83 0
v -7 -83 0
v -8 -84 0
v -9 -84 0
v -9 -83 0
v -8 -83 0
v -9 -84 0
v -10 -84 0
v -10 -83 0
v -9 -83 0
v -19 -81 0
v -20 -81 0
v -20 -80 0
v -19 -80 0
v -20 -81 0
v -21 -81 0
v -21 -80 0
v -20 -80 0
v -21 -81 0
v -22 -81 0
v -22 -80 0
v -21 -80 0
v -22 -81 0
v -23 -81 0
v -23 -80 0
v -22 -80 0
v -23 -81 0
v -24 -81 0
v -24 -80 0
v -23 -80 0
v -14 -78 0
v -15 -78 0
v -15 -77 0
v -14 -77 0
v -15 -78 0
v -16 -78 0
v -16 -77 0
v -15 -77 0
v -16 -78 0
v -17 -78 0
v -17 -77 0
v -16 -77 0
v -17 -78 0
v -18 -78 0
v -18 -77 0
v -17 -77 0
v -20 -75 0
v -21 -75 0
v -21 -74 0
v -20 -74 0
v -21 -75 0
v -22 -75 0
v -22 -74 0
v -21 -74 0
v -22 -75 0
v -23 -75 0
v -23 -74 0
v -22 -74 0
v -23 -75 0
v -24 -75 0
v -24 -74 0
v -23 -74 0
v -18 -60 0
v -19 -60 0
v -19 -59 0
v -18 -59 0
v -19 -60 0
v -20 -60 0
v -20 -59 0
v -19 -59 0
v -20 -60 0
v -21 -60 0
v -21 -59 0
v -20 -59 0
v -5 -58 0
v -6 -58 0
v -6 -57 0
v -5 -57 0
v -6 -58 0
v -7 -58 0
v -7 -57 0
v -6 -57 0
v -7 -58 0
v -8 -58 0
v -8 -57 0
v -7 -57 0
v -7 -53 0
v -8 -53 0
v -8 -52 0
v -7 -52 0
v -8 -53 0
v -9 -53 0
v -9 -52 0
v -8 -52 0
v -9 -53 0
v -10 -53 0
v -10 -52 0
v -9 -52 0
v -10 -32 0
v -11 -32 0
v -11 -31 0
v -10 -31 0
v -11 -32 0
v -12 -32 0
v -12 -31 0
v -11 -31 0
v -12 -32 0
v -13 -32 0
v -13 -31 0
v -12 -31 0
v -13 -32 0
v -14 -32 0
v -14 -31 0
v -13 -31 0
v -14 -32 0
v -15 -32 0
v -15 -31 0
v -14 -31 0
v -5 -29 0
v -6 -29 0
v -6 -28 0
v -5 -28 0
v -6 -29 0
v -7 -29 0
v -7 -28 0
v -6 -28 0
v -7 -29 0
v -8 -29 0
v -8 -28 0
v -7 -28 0
v -8 -29 0
v -9 -29 0
v -9 -28 0
v -8 -28 0
v -16 -29 0
v -17 -29 0
v -17 -28 0
v -16 -28 0
v -17 -29 0
v -18 -29 0
v -18 -28 0
v -17 -28 0
v -18 -29 0
v -19 -29 0
v -19 -28 0
v -18 -28 0
v -19 -29 0
v -20 -29 0
v -20 -28 0
v -19 -28 0
v -1 -26 0
v -2 -26 0
v -2 -25 0
v -1 -25 0
v -2 -26 0
v -3 -26 0
v -3 -25 0
v -2 -25 0
v -3 -26 0
v -4 -26 0
v -4 -25 0
v -3 -25 0
v -4 -26 0
v -5 -26 0
v -5 -25 0
v -4 -25 0
v -20 -26 0
v -21 -26 0
v -21 -25 0
v -20 -25 0
v -21 -26 0
v -22 -26 0
v -22 -25 0
v -21 -25 0
v -22 -26 0
v -23 -26 0
v -23 -25 0
v -22 -25 0
v -23 -26 0
v -24 -26 0
v -24 -25 0
v -23 -25 0
v -5 -15 0
v -6 -15 0
v -6 -14 0
v -5 -14 0
v -6 -15 0
v -7 -15 0
v -7 -14 0
v -6 -14 0
v -18 -15 0
v -19 -15 0
v -19 -14 0
v -18 -14 0
v -19 -15 0
v -20 -15 0
v -20 -14 0
v -19 -14 0
v -9 -13 0
v -10 -13 0
v -10 -12 0
v -9 -12 0
v -10 -13 0
v -11 -13 0
v -11 -12 0
v -10 -12 0
v -14 -13 0
v -15 -13 0
v -15 -12 0
v -14 -12 0
v -15 -13 0
v -16 -13 0
v -16 -12 0
v -15 -12 0
v -3 -11 0
v -4 -11 0
v -4 -10 0
v -3 -10 0
v -4 -11 0
v -5 -11 0
v -5 -10 0
v -4 -10 0
v -20 -11 0
v -21 -11 0
v -21 -10 0
v -20 -10 0
v -21 -11 0
v -22 -11 0
v -22 -10 0
v -21 -10 0

# Texture cooridinates (Count = 8)
vt 0.625 0.5
vt 0.75 0.5
vt 0.75 0.625
vt 0.625 0.625
vt 0.875 0.5
vt 0.875 0.625
vt 1 0.5
vt 1 0.625

# Normal
vn 0 0 -1

# Mesh description
g level0_mesh_0006

# Faces
f 1/1/1 2/2/1 3/3/1 4/4/1
f 5/2/1 6/5/1 7/6/1 8/3/1
f 9/2/1 10/5/1 11/6/1 12/3/1
f 13/2/1 14/5/1 15/6/1 16/3/1
f 17/2/1 18/5/1 19/6/1 20/3/1
f 21/2/1 22/5/1 23/6/1 24/3/1
f 25/5/1 26/7/1 27/8/1 28/6/1
f 29/1/1 30/2/1 31/3/1 32/4/1
f 33/2/1 34/5/1 35/6/1 36/3/1
f 37/2/1 38/5/1 39/6/1 40/3/1
f 41/2/1 42/5/1 43/6/1 44/3/1
f 45/2/1 46/5/1 47/6/1 48/3/1
f 49/2/1 50/5/1 51/6/1 52/3/1
f 53/2/1 54/5/1 55/6/1 56/3/1
f 57/2/1 58/5/1 59/6/1 60/3/1
f 61/5/1 62/7/1 63/8/1 64/6/1
f 65/1/1 66/2/1 67/3/1 68/4/1
f 69/2/1 70/5/1 71/6/1 72/3/1
f 73/2/1 74/5/1 75/6/1 76/3/1
f 77/2/1 78/5/1 79/6/1 80/3/1
f 81/1/1 82/2/1 83/3/1 84/4/1
f 85/2/1 86/5/1 87/6/1 88/3/1
f 89/5/1 90/7/1 91/8/1 92/6/1
f 93/1/1 94/2/1 95/3/1 96/4/1
f 97/2/1 98/5/1 99/6/1 100/3/1
f 101/5/1 102/7/1 103/8/1 104/6/1
f 105/1/1 106/2/1 107/3/1 108/4/1
f 109/2/1 110/5/1 111/6/1 112/3/1
f 113/5/1 114/7/1 115/8/1 116/6/1
f 117/1/1 118/2/1 119/3/1 120/4/1
f 121/2/1 122/5/1 123/6/1 124/3/1
f 125/2/1 126/5/1 127/6/1 128/3/1
f 129/2/1 130/5/1 131/6/1 132/3/1
f 133/5/1 134/7/1 135/8/1 136/6/1
f 137/1/1 138/2/1 139/3/1 140/4/1
f 141/2/1 142/5/1 143/6/1 144/3/1
f 145/2/1 146/5/1 147/6/1 148/3/1
f 149/5/1 150/7/1 151/8/1 152/6/1
f 153/1/1 154/2/1 155/3/1 156/4/1
f 157/2/1 158/5/1 159/6/1 160/3/1
f 161/2/1 162/5/1 163/6/1 164/3/1
f 165/5/1 166/7/1 167/8/1 168/6/1
f 169/2/1 170/5/1 171/6/1 172/3/1
f 173/2/1 174/5/1 175/6/1 176/3/1
f 177/2/1 178/5/1 179/6/1 180/3/1
f 181/5/1 182/7/1 183/8/1 184/6/1
f 185/1/1 186/2/1 187/3/1 188/4/1
f 189/2/1 190/5/1 191/6/1 192/3/1
f 193/2/1 194/5/1 195/6/1 196/3/1
f 197/2/1 198/5/1 199/6/1 200/3/1
f 201/1/1 202/2/1 203/3/1 204/4/1
f 205/5/1 206/7/1 207/8/1 208/6/1
f 209/1/1 210/2/1 211/3/1 212/4/1
f 213/5/1 214/7/1 215/8/1 216/6/1
f 217/1/1 218/2/1 219/3/1 220/4/1
f 221/5/1 222/7/1 223/8/1 224/6/1
f 225/1/1 226/2/1 227/3/1 228/4/1
f 229/5/1 230/7/1 231/8/1 232/6/1
f 233/1/1 234/2/1 235/3/1 236/4/1
f 237/5/1 238/7/1 239/8/1 240/6/1
f 241/1/1 242/2/1 243/3/1 244/4/1
f 245/5/1 246/7/1 247/8/1 248/6/1

