# Tiled2Unity generated file. Do not modify by hand.
# Wavefront file for 'level0_mesh_0007.obj'

# Vertices (Count = 304)
v -2 -96 0
v -3 -96 0
v -3 -95 0
v -2 -95 0
v -3 -96 0
v -4 -96 0
v -4 -95 0
v -3 -95 0
v -4 -96 0
v -5 -96 0
v -5 -95 0
v -4 -95 0
v -12 -96 0
v -13 -96 0
v -13 -95 0
v -12 -95 0
v -13 -96 0
v -14 -96 0
v -14 -95 0
v -13 -95 0
v -14 -96 0
v -15 -96 0
v -15 -95 0
v -14 -95 0
v -15 -96 0
v -16 -96 0
v -16 -95 0
v -15 -95 0
v -16 -96 0
v -17 -96 0
v -17 -95 0
v -16 -95 0
v -22 -96 0
v -23 -96 0
v -23 -95 0
v -22 -95 0
v -23 -96 0
v -24 -96 0
v -24 -95 0
v -23 -95 0
v -12 -93 0
v -13 -93 0
v -13 -92 0
v -12 -92 0
v -4 -91 0
v -5 -91 0
v -5 -90 0
v -4 -90 0
v -5 -91 0
v -6 -91 0
v -6 -90 0
v -5 -90 0
v -19 -91 0
v -20 -91 0
v -20 -90 0
v -19 -90 0
v -20 -91 0
v -21 -91 0
v -21 -90 0
v -20 -90 0
v -11 -88 0
v -12 -88 0
v -12 -87 0
v -11 -87 0
v -13 -88 0
v -14 -88 0
v -14 -87 0
v -13 -87 0
v -16 -84 0
v -17 -84 0
v -17 -83 0
v -16 -83 0
v -17 -84 0
v -18 -84 0
v -18 -83 0
v -17 -83 0
v -18 -84 0
v -19 -84 0
v -19 -83 0
v -18 -83 0
v -3 -80 0
v -4 -80 0
v -4 -79 0
v -3 -79 0
v -4 -80 0
v -5 -80 0
v -5 -79 0
v -4 -79 0
v -5 -75 0
v -6 -75 0
v -6 -74 0
v -5 -74 0
v -6 -75 0
v -7 -75 0
v -7 -74 0
v -6 -74 0
v -7 -75 0
v -8 -75 0
v -8 -74 0
v -7 -74 0
v -8 -75 0
v -9 -75 0
v -9 -74 0
v -8 -74 0
v -9 -75 0
v -10 -75 0
v -10 -74 0
v -9 -74 0
v -10 -75 0
v -11 -75 0
v -11 -74 0
v -10 -74 0
v -6 -72 0
v -7 -72 0
v -7 -71 0
v -6 -71 0
v -7 -72 0
v -8 -72 0
v -8 -71 0
v -7 -71 0
v -8 -72 0
v -9 -72 0
v -9 -71 0
v -8 -71 0
v -18 -70 0
v -19 -70 0
v -19 -69 0
v -18 -69 0
v -19 -70 0
v -20 -70 0
v -20 -69 0
v -19 -69 0
v -10 -68 0
v -11 -68 0
v -11 -67 0
v -10 -67 0
v -2 -67 0
v -3 -67 0
v -3 -66 0
v -2 -66 0
v -3 -67 0
v -4 -67 0
v -4 -66 0
v -3 -66 0
v -4 -67 0
v -5 -67 0
v -5 -66 0
v -4 -66 0
v -16 -65 0
v -17 -65 0
v -17 -64 0
v -16 -64 0
v -17 -65 0
v -18 -65 0
v -18 -64 0
v -17 -64 0
v -18 -65 0
v -19 -65 0
v -19 -64 0
v -18 -64 0
v -13 -63 0
v -14 -63 0
v -14 -62 0
v -13 -62 0
v -13 -57 0
v -14 -57 0
v -14 -56 0
v -13 -56 0
v -14 -57 0
v -15 -57 0
v -15 -56 0
v -14 -56 0
v -18 -53 0
v -19 -53 0
v -19 -52 0
v -18 -52 0
v -19 -53 0
v -20 -53 0
v -20 -52 0
v -19 -52 0
v -6 -46 0
v -7 -46 0
v -7 -45 0
v -6 -45 0
v -7 -46 0
v -8 -46 0
v -8 -45 0
v -7 -45 0
v -8 -46 0
v -9 -46 0
v -9 -45 0
v -8 -45 0
v -9 -46 0
v -10 -46 0
v -10 -45 0
v -9 -45 0
v -10 -46 0
v -11 -46 0
v -11 -45 0
v -10 -45 0
v -11 -46 0
v -12 -46 0
v -12 -45 0
v -11 -45 0
v -17 -46 0
v -18 -46 0
v -18 -45 0
v -17 -45 0
v -18 -46 0
v -19 -46 0
v -19 -45 0
v -18 -45 0
v -19 -46 0
v -20 -46 0
v -20 -45 0
v -19 -45 0
v -11 -38 0
v -12 -38 0
v -12 -37 0
v -11 -37 0
v -19 -35 0
v -20 -35 0
v -20 -34 0
v -19 -34 0
v -21 -35 0
v -22 -35 0
v -22 -34 0
v -21 -34 0
v -10 -23 0
v -11 -23 0
v -11 -22 0
v -10 -22 0
v -11 -23 0
v -12 -23 0
v -12 -22 0
v -11 -22 0
v -12 -19 0
v -13 -19 0
v -13 -18 0
v -12 -18 0
v -13 -19 0
v -14 -19 0
v -14 -18 0
v -13 -18 0
v -14 -19 0
v -15 -19 0
v -15 -18 0
v -14 -18 0
v -18 -19 0
v -19 -19 0
v -19 -18 0
v -18 -18 0
v -19 -19 0
v -20 -19 0
v -20 -18 0
v -19 -18 0
v -1 -6 0
v -2 -6 0
v -2 -5 0
v -1 -5 0
v -2 -6 0
v -3 -6 0
v -3 -5 0
v -2 -5 0
v -3 -6 0
v -4 -6 0
v -4 -5 0
v -3 -5 0
v -8 -6 0
v -9 -6 0
v -9 -5 0
v -8 -5 0
v -9 -6 0
v -10 -6 0
v -10 -5 0
v -9 -5 0
v -10 -6 0
v -11 -6 0
v -11 -5 0
v -10 -5 0
v -14 -6 0
v -15 -6 0
v -15 -5 0
v -14 -5 0
v -15 -6 0
v -16 -6 0
v -16 -5 0
v -15 -5 0
v -16 -6 0
v -17 -6 0
v -17 -5 0
v -16 -5 0
v -21 -6 0
v -22 -6 0
v -22 -5 0
v -21 -5 0
v -22 -6 0
v -23 -6 0
v -23 -5 0
v -22 -5 0
v -23 -6 0
v -24 -6 0
v -24 -5 0
v -23 -5 0

# Texture cooridinates (Count = 10)
vt 0.25 0.5
vt 0.375 0.5
vt 0.375 0.625
vt 0.25 0.625
vt 0.125 0.5
vt 0.125 0.625
vt 0.5 0.75
vt 0.625 0.75
vt 0.625 0.875
vt 0.5 0.875

# Normal
vn 0 0 -1

# Mesh description
g level0_mesh_0007

# Faces
f 1/1/1 2/2/1 3/3/1 4/4/1
f 5/1/1 6/2/1 7/3/1 8/4/1
f 9/1/1 10/2/1 11/3/1 12/4/1
f 13/5/1 14/1/1 15/4/1 16/6/1
f 17/1/1 18/2/1 19/3/1 20/4/1
f 21/1/1 22/2/1 23/3/1 24/4/1
f 25/1/1 26/2/1 27/3/1 28/4/1
f 29/1/1 30/2/1 31/3/1 32/4/1
f 33/1/1 34/2/1 35/3/1 36/4/1
f 37/1/1 38/2/1 39/3/1 40/4/1
f 41/7/1 42/8/1 43/9/1 44/10/1
f 45/7/1 46/8/1 47/9/1 48/10/1
f 49/7/1 50/8/1 51/9/1 52/10/1
f 53/7/1 54/8/1 55/9/1 56/10/1
f 57/7/1 58/8/1 59/9/1 60/10/1
f 61/7/1 62/8/1 63/9/1 64/10/1
f 65/7/1 66/8/1 67/9/1 68/10/1
f 69/1/1 70/2/1 71/3/1 72/4/1
f 73/1/1 74/2/1 75/3/1 76/4/1
f 77/1/1 78/2/1 79/3/1 80/4/1
f 81/7/1 82/8/1 83/9/1 84/10/1
f 85/7/1 86/8/1 87/9/1 88/10/1
f 89/1/1 90/2/1 91/3/1 92/4/1
f 93/1/1 94/2/1 95/3/1 96/4/1
f 97/1/1 98/2/1 99/3/1 100/4/1
f 101/1/1 102/2/1 103/3/1 104/4/1
f 105/1/1 106/2/1 107/3/1 108/4/1
f 109/1/1 110/2/1 111/3/1 112/4/1
f 113/7/1 114/8/1 115/9/1 116/10/1
f 117/7/1 118/8/1 119/9/1 120/10/1
f 121/7/1 122/8/1 123/9/1 124/10/1
f 125/7/1 126/8/1 127/9/1 128/10/1
f 129/7/1 130/8/1 131/9/1 132/10/1
f 133/7/1 134/8/1 135/9/1 136/10/1
f 137/1/1 138/2/1 139/3/1 140/4/1
f 141/1/1 142/2/1 143/3/1 144/4/1
f 145/1/1 146/2/1 147/3/1 148/4/1
f 149/1/1 150/2/1 151/3/1 152/4/1
f 153/1/1 154/2/1 155/3/1 156/4/1
f 157/5/1 158/1/1 159/4/1 160/6/1
f 161/7/1 162/8/1 163/9/1 164/10/1
f 165/7/1 166/8/1 167/9/1 168/10/1
f 169/7/1 170/8/1 171/9/1 172/10/1
f 173/7/1 174/8/1 175/9/1 176/10/1
f 177/7/1 178/8/1 179/9/1 180/10/1
f 181/1/1 182/2/1 183/3/1 184/4/1
f 185/1/1 186/2/1 187/3/1 188/4/1
f 189/1/1 190/2/1 191/3/1 192/4/1
f 193/5/1 194/1/1 195/4/1 196/6/1
f 197/5/1 198/1/1 199/4/1 200/6/1
f 201/5/1 202/1/1 203/4/1 204/6/1
f 205/1/1 206/2/1 207/3/1 208/4/1
f 209/1/1 210/2/1 211/3/1 212/4/1
f 213/1/1 214/2/1 215/3/1 216/4/1
f 217/7/1 218/8/1 219/9/1 220/10/1
f 221/7/1 222/8/1 223/9/1 224/10/1
f 225/7/1 226/8/1 227/9/1 228/10/1
f 229/1/1 230/2/1 231/3/1 232/4/1
f 233/1/1 234/2/1 235/3/1 236/4/1
f 237/1/1 238/2/1 239/3/1 240/4/1
f 241/1/1 242/2/1 243/3/1 244/4/1
f 245/5/1 246/1/1 247/4/1 248/6/1
f 249/1/1 250/2/1 251/3/1 252/4/1
f 253/1/1 254/2/1 255/3/1 256/4/1
f 257/1/1 258/2/1 259/3/1 260/4/1
f 261/1/1 262/2/1 263/3/1 264/4/1
f 265/1/1 266/2/1 267/3/1 268/4/1
f 269/1/1 270/2/1 271/3/1 272/4/1
f 273/1/1 274/2/1 275/3/1 276/4/1
f 277/1/1 278/2/1 279/3/1 280/4/1
f 281/1/1 282/2/1 283/3/1 284/4/1
f 285/1/1 286/2/1 287/3/1 288/4/1
f 289/1/1 290/2/1 291/3/1 292/4/1
f 293/1/1 294/2/1 295/3/1 296/4/1
f 297/1/1 298/2/1 299/3/1 300/4/1
f 301/1/1 302/2/1 303/3/1 304/4/1

