# Tiled2Unity generated file. Do not modify by hand.
# Wavefront file for 'level0_mesh_0004.obj'

# Vertices (Count = 608)
v -1 -100 0
v -2 -100 0
v -2 -99 0
v -1 -99 0
v -2 -100 0
v -3 -100 0
v -3 -99 0
v -2 -99 0
v -3 -100 0
v -4 -100 0
v -4 -99 0
v -3 -99 0
v -4 -100 0
v -5 -100 0
v -5 -99 0
v -4 -99 0
v -5 -100 0
v -6 -100 0
v -6 -99 0
v -5 -99 0
v -6 -100 0
v -7 -100 0
v -7 -99 0
v -6 -99 0
v -7 -100 0
v -8 -100 0
v -8 -99 0
v -7 -99 0
v -8 -100 0
v -9 -100 0
v -9 -99 0
v -8 -99 0
v -9 -100 0
v -10 -100 0
v -10 -99 0
v -9 -99 0
v -10 -100 0
v -11 -100 0
v -11 -99 0
v -10 -99 0
v -11 -100 0
v -12 -100 0
v -12 -99 0
v -11 -99 0
v -12 -100 0
v -13 -100 0
v -13 -99 0
v -12 -99 0
v -13 -100 0
v -14 -100 0
v -14 -99 0
v -13 -99 0
v -14 -100 0
v -15 -100 0
v -15 -99 0
v -14 -99 0
v -15 -100 0
v -16 -100 0
v -16 -99 0
v -15 -99 0
v -16 -100 0
v -17 -100 0
v -17 -99 0
v -16 -99 0
v -17 -100 0
v -18 -100 0
v -18 -99 0
v -17 -99 0
v -18 -100 0
v -19 -100 0
v -19 -99 0
v -18 -99 0
v -19 -100 0
v -20 -100 0
v -20 -99 0
v -19 -99 0
v -20 -100 0
v -21 -100 0
v -21 -99 0
v -20 -99 0
v -21 -100 0
v -22 -100 0
v -22 -99 0
v -21 -99 0
v -22 -100 0
v -23 -100 0
v -23 -99 0
v -22 -99 0
v -23 -100 0
v -24 -100 0
v -24 -99 0
v -23 -99 0
v -6 -99 0
v -7 -99 0
v -7 -98 0
v -6 -98 0
v -12 -99 0
v -13 -99 0
v -13 -98 0
v -12 -98 0
v -18 -99 0
v -19 -99 0
v -19 -98 0
v -18 -98 0
v -6 -98 0
v -7 -98 0
v -7 -97 0
v -6 -97 0
v -12 -98 0
v -13 -98 0
v -13 -97 0
v -12 -97 0
v -18 -98 0
v -19 -98 0
v -19 -97 0
v -18 -97 0
v -6 -97 0
v -7 -97 0
v -7 -96 0
v -6 -96 0
v -12 -97 0
v -13 -97 0
v -13 -96 0
v -12 -96 0
v -18 -97 0
v -19 -97 0
v -19 -96 0
v -18 -96 0
v -1 -94 0
v -2 -94 0
v -2 -93 0
v -1 -93 0
v -23 -94 0
v -24 -94 0
v -24 -93 0
v -23 -93 0
v -11 -93 0
v -12 -93 0
v -12 -92 0
v -11 -92 0
v -12 -93 0
v -13 -93 0
v -13 -92 0
v -12 -92 0
v -13 -93 0
v -14 -93 0
v -14 -92 0
v -13 -92 0
v -4 -91 0
v -5 -91 0
v -5 -90 0
v -4 -90 0
v -5 -91 0
v -6 -91 0
v -6 -90 0
v -5 -90 0
v -6 -91 0
v -7 -91 0
v -7 -90 0
v -6 -90 0
v -18 -91 0
v -19 -91 0
v -19 -90 0
v -18 -90 0
v -19 -91 0
v -20 -91 0
v -20 -90 0
v -19 -90 0
v -20 -91 0
v -21 -91 0
v -21 -90 0
v -20 -90 0
v -11 -88 0
v -12 -88 0
v -12 -87 0
v -11 -87 0
v -12 -88 0
v -13 -88 0
v -13 -87 0
v -12 -87 0
v -13 -88 0
v -14 -88 0
v -14 -87 0
v -13 -87 0
v -22 -85 0
v -23 -85 0
v -23 -84 0
v -22 -84 0
v -23 -85 0
v -24 -85 0
v -24 -84 0
v -23 -84 0
v -13 -82 0
v -14 -82 0
v -14 -81 0
v -13 -81 0
v -13 -81 0
v -14 -81 0
v -14 -80 0
v -13 -80 0
v -2 -80 0
v -3 -80 0
v -3 -79 0
v -2 -79 0
v -3 -80 0
v -4 -80 0
v -4 -79 0
v -3 -79 0
v -4 -80 0
v -5 -80 0
v -5 -79 0
v -4 -79 0
v -9 -80 0
v -10 -80 0
v -10 -79 0
v -9 -79 0
v -10 -80 0
v -11 -80 0
v -11 -79 0
v -10 -79 0
v -11 -80 0
v -12 -80 0
v -12 -79 0
v -11 -79 0
v -13 -80 0
v -14 -80 0
v -14 -79 0
v -13 -79 0
v -13 -79 0
v -14 -79 0
v -14 -78 0
v -13 -78 0
v -13 -78 0
v -14 -78 0
v -14 -77 0
v -13 -77 0
v -13 -77 0
v -14 -77 0
v -14 -76 0
v -13 -76 0
v -13 -76 0
v -14 -76 0
v -14 -75 0
v -13 -75 0
v -13 -75 0
v -14 -75 0
v -14 -74 0
v -13 -74 0
v -13 -74 0
v -14 -74 0
v -14 -73 0
v -13 -73 0
v -14 -74 0
v -15 -74 0
v -15 -73 0
v -14 -73 0
v -15 -74 0
v -16 -74 0
v -16 -73 0
v -15 -73 0
v -16 -74 0
v -17 -74 0
v -17 -73 0
v -16 -73 0
v -6 -72 0
v -7 -72 0
v -7 -71 0
v -6 -71 0
v -7 -72 0
v -8 -72 0
v -8 -71 0
v -7 -71 0
v -8 -72 0
v -9 -72 0
v -9 -71 0
v -8 -71 0
v -17 -70 0
v -18 -70 0
v -18 -69 0
v -17 -69 0
v -18 -70 0
v -19 -70 0
v -19 -69 0
v -18 -69 0
v -19 -70 0
v -20 -70 0
v -20 -69 0
v -19 -69 0
v -10 -68 0
v -11 -68 0
v -11 -67 0
v -10 -67 0
v -11 -68 0
v -12 -68 0
v -12 -67 0
v -11 -67 0
v -12 -68 0
v -13 -68 0
v -13 -67 0
v -12 -67 0
v -18 -66 0
v -19 -66 0
v -19 -65 0
v -18 -65 0
v -19 -66 0
v -20 -66 0
v -20 -65 0
v -19 -65 0
v -20 -66 0
v -21 -66 0
v -21 -65 0
v -20 -65 0
v -4 -64 0
v -5 -64 0
v -5 -63 0
v -4 -63 0
v -5 -64 0
v -6 -64 0
v -6 -63 0
v -5 -63 0
v -6 -64 0
v -7 -64 0
v -7 -63 0
v -6 -63 0
v -13 -63 0
v -14 -63 0
v -14 -62 0
v -13 -62 0
v -14 -63 0
v -15 -63 0
v -15 -62 0
v -14 -62 0
v -15 -63 0
v -16 -63 0
v -16 -62 0
v -15 -62 0
v -12 -57 0
v -13 -57 0
v -13 -56 0
v -12 -56 0
v -13 -57 0
v -14 -57 0
v -14 -56 0
v -13 -56 0
v -14 -57 0
v -15 -57 0
v -15 -56 0
v -14 -56 0
v -1 -54 0
v -2 -54 0
v -2 -53 0
v -1 -53 0
v -23 -54 0
v -24 -54 0
v -24 -53 0
v -23 -53 0
v -18 -53 0
v -19 -53 0
v -19 -52 0
v -18 -52 0
v -19 -53 0
v -20 -53 0
v -20 -52 0
v -19 -52 0
v -20 -53 0
v -21 -53 0
v -21 -52 0
v -20 -52 0
v -1 -47 0
v -2 -47 0
v -2 -46 0
v -1 -46 0
v -2 -47 0
v -3 -47 0
v -3 -46 0
v -2 -46 0
v -3 -47 0
v -4 -47 0
v -4 -46 0
v -3 -46 0
v -4 -47 0
v -5 -47 0
v -5 -46 0
v -4 -46 0
v -9 -47 0
v -10 -47 0
v -10 -46 0
v -9 -46 0
v -10 -47 0
v -11 -47 0
v -11 -46 0
v -10 -46 0
v -11 -47 0
v -12 -47 0
v -12 -46 0
v -11 -46 0
v -12 -47 0
v -13 -47 0
v -13 -46 0
v -12 -46 0
v -13 -47 0
v -14 -47 0
v -14 -46 0
v -13 -46 0
v -1 -43 0
v -2 -43 0
v -2 -42 0
v -1 -42 0
v -2 -43 0
v -3 -43 0
v -3 -42 0
v -2 -42 0
v -3 -43 0
v -4 -43 0
v -4 -42 0
v -3 -42 0
v -4 -43 0
v -5 -43 0
v -5 -42 0
v -4 -42 0
v -5 -43 0
v -6 -43 0
v -6 -42 0
v -5 -42 0
v -19 -43 0
v -20 -43 0
v -20 -42 0
v -19 -42 0
v -20 -43 0
v -21 -43 0
v -21 -42 0
v -20 -42 0
v -21 -43 0
v -22 -43 0
v -22 -42 0
v -21 -42 0
v -22 -43 0
v -23 -43 0
v -23 -42 0
v -22 -42 0
v -23 -43 0
v -24 -43 0
v -24 -42 0
v -23 -42 0
v -11 -38 0
v -12 -38 0
v -12 -37 0
v -11 -37 0
v -12 -38 0
v -13 -38 0
v -13 -37 0
v -12 -37 0
v -13 -38 0
v -14 -38 0
v -14 -37 0
v -13 -37 0
v -3 -37 0
v -4 -37 0
v -4 -36 0
v -3 -36 0
v -4 -37 0
v -5 -37 0
v -5 -36 0
v -4 -36 0
v -5 -37 0
v -6 -37 0
v -6 -36 0
v -5 -36 0
v -19 -35 0
v -20 -35 0
v -20 -34 0
v -19 -34 0
v -20 -35 0
v -21 -35 0
v -21 -34 0
v -20 -34 0
v -21 -35 0
v -22 -35 0
v -22 -34 0
v -21 -34 0
v -1 -20 0
v -2 -20 0
v -2 -19 0
v -1 -19 0
v -2 -20 0
v -3 -20 0
v -3 -19 0
v -2 -19 0
v -3 -20 0
v -4 -20 0
v -4 -19 0
v -3 -19 0
v -4 -20 0
v -5 -20 0
v -5 -19 0
v -4 -19 0
v -8 -20 0
v -9 -20 0
v -9 -19 0
v -8 -19 0
v -9 -20 0
v -10 -20 0
v -10 -19 0
v -9 -19 0
v -10 -20 0
v -11 -20 0
v -11 -19 0
v -10 -19 0
v -14 -20 0
v -15 -20 0
v -15 -19 0
v -14 -19 0
v -15 -20 0
v -16 -20 0
v -16 -19 0
v -15 -19 0
v -16 -20 0
v -17 -20 0
v -17 -19 0
v -16 -19 0
v -20 -20 0
v -21 -20 0
v -21 -19 0
v -20 -19 0
v -21 -20 0
v -22 -20 0
v -22 -19 0
v -21 -19 0
v -22 -20 0
v -23 -20 0
v -23 -19 0
v -22 -19 0
v -23 -20 0
v -24 -20 0
v -24 -19 0
v -23 -19 0
v -24 -20 0
v -25 -20 0
v -25 -19 0
v -24 -19 0
v -4 -19 0
v -5 -19 0
v -5 -18 0
v -4 -18 0
v -20 -19 0
v -21 -19 0
v -21 -18 0
v -20 -18 0
v -4 -18 0
v -5 -18 0
v -5 -17 0
v -4 -17 0
v -20 -18 0
v -21 -18 0
v -21 -17 0
v -20 -17 0
v -4 -17 0
v -5 -17 0
v -5 -16 0
v -4 -16 0
v -20 -17 0
v -21 -17 0
v -21 -16 0
v -20 -16 0
v -4 -7 0
v -5 -7 0
v -5 -6 0
v -4 -6 0
v -5 -7 0
v -6 -7 0
v -6 -6 0
v -5 -6 0
v -6 -7 0
v -7 -7 0
v -7 -6 0
v -6 -6 0
v -7 -7 0
v -8 -7 0
v -8 -6 0
v -7 -6 0
v -11 -7 0
v -12 -7 0
v -12 -6 0
v -11 -6 0
v -12 -7 0
v -13 -7 0
v -13 -6 0
v -12 -6 0
v -13 -7 0
v -14 -7 0
v -14 -6 0
v -13 -6 0
v -17 -7 0
v -18 -7 0
v -18 -6 0
v -17 -6 0
v -18 -7 0
v -19 -7 0
v -19 -6 0
v -18 -6 0
v -19 -7 0
v -20 -7 0
v -20 -6 0
v -19 -6 0
v -20 -7 0
v -21 -7 0
v -21 -6 0
v -20 -6 0

# Texture cooridinates (Count = 12)
vt 0.75 0.625
vt 0.875 0.625
vt 0.875 0.75
vt 0.75 0.75
vt 0.625 0.875
vt 0.75 0.875
vt 0.75 1
vt 0.625 1
vt 0.375 0.875
vt 0.5 0.875
vt 0.5 1
vt 0.375 1

# Normal
vn 0 0 -1

# Mesh description
g level0_mesh_0004

# Faces
f 1/1/1 2/2/1 3/3/1 4/4/1
f 5/1/1 6/2/1 7/3/1 8/4/1
f 9/1/1 10/2/1 11/3/1 12/4/1
f 13/1/1 14/2/1 15/3/1 16/4/1
f 17/1/1 18/2/1 19/3/1 20/4/1
f 21/1/1 22/2/1 23/3/1 24/4/1
f 25/1/1 26/2/1 27/3/1 28/4/1
f 29/1/1 30/2/1 31/3/1 32/4/1
f 33/1/1 34/2/1 35/3/1 36/4/1
f 37/1/1 38/2/1 39/3/1 40/4/1
f 41/1/1 42/2/1 43/3/1 44/4/1
f 45/1/1 46/2/1 47/3/1 48/4/1
f 49/1/1 50/2/1 51/3/1 52/4/1
f 53/1/1 54/2/1 55/3/1 56/4/1
f 57/1/1 58/2/1 59/3/1 60/4/1
f 61/1/1 62/2/1 63/3/1 64/4/1
f 65/1/1 66/2/1 67/3/1 68/4/1
f 69/1/1 70/2/1 71/3/1 72/4/1
f 73/1/1 74/2/1 75/3/1 76/4/1
f 77/1/1 78/2/1 79/3/1 80/4/1
f 81/1/1 82/2/1 83/3/1 84/4/1
f 85/1/1 86/2/1 87/3/1 88/4/1
f 89/1/1 90/2/1 91/3/1 92/4/1
f 93/1/1 94/2/1 95/3/1 96/4/1
f 97/1/1 98/2/1 99/3/1 100/4/1
f 101/1/1 102/2/1 103/3/1 104/4/1
f 105/1/1 106/2/1 107/3/1 108/4/1
f 109/1/1 110/2/1 111/3/1 112/4/1
f 113/1/1 114/2/1 115/3/1 116/4/1
f 117/1/1 118/2/1 119/3/1 120/4/1
f 121/1/1 122/2/1 123/3/1 124/4/1
f 125/1/1 126/2/1 127/3/1 128/4/1
f 129/5/1 130/6/1 131/7/1 132/8/1
f 133/9/1 134/10/1 135/11/1 136/12/1
f 137/9/1 138/10/1 139/11/1 140/12/1
f 141/10/1 142/5/1 143/8/1 144/11/1
f 145/5/1 146/6/1 147/7/1 148/8/1
f 149/9/1 150/10/1 151/11/1 152/12/1
f 153/10/1 154/5/1 155/8/1 156/11/1
f 157/5/1 158/6/1 159/7/1 160/8/1
f 161/9/1 162/10/1 163/11/1 164/12/1
f 165/10/1 166/5/1 167/8/1 168/11/1
f 169/5/1 170/6/1 171/7/1 172/8/1
f 173/9/1 174/10/1 175/11/1 176/12/1
f 177/10/1 178/5/1 179/8/1 180/11/1
f 181/5/1 182/6/1 183/7/1 184/8/1
f 185/1/1 186/2/1 187/3/1 188/4/1
f 189/1/1 190/2/1 191/3/1 192/4/1
f 193/1/1 194/2/1 195/3/1 196/4/1
f 197/1/1 198/2/1 199/3/1 200/4/1
f 201/9/1 202/10/1 203/11/1 204/12/1
f 205/10/1 206/5/1 207/8/1 208/11/1
f 209/5/1 210/6/1 211/7/1 212/8/1
f 213/9/1 214/10/1 215/11/1 216/12/1
f 217/10/1 218/5/1 219/8/1 220/11/1
f 221/5/1 222/6/1 223/7/1 224/8/1
f 225/1/1 226/2/1 227/3/1 228/4/1
f 229/1/1 230/2/1 231/3/1 232/4/1
f 233/1/1 234/2/1 235/3/1 236/4/1
f 237/1/1 238/2/1 239/3/1 240/4/1
f 241/1/1 242/2/1 243/3/1 244/4/1
f 245/1/1 246/2/1 247/3/1 248/4/1
f 249/1/1 250/2/1 251/3/1 252/4/1
f 253/1/1 254/2/1 255/3/1 256/4/1
f 257/1/1 258/2/1 259/3/1 260/4/1
f 261/1/1 262/2/1 263/3/1 264/4/1
f 265/9/1 266/10/1 267/11/1 268/12/1
f 269/10/1 270/5/1 271/8/1 272/11/1
f 273/5/1 274/6/1 275/7/1 276/8/1
f 277/9/1 278/10/1 279/11/1 280/12/1
f 281/10/1 282/5/1 283/8/1 284/11/1
f 285/5/1 286/6/1 287/7/1 288/8/1
f 289/9/1 290/10/1 291/11/1 292/12/1
f 293/10/1 294/5/1 295/8/1 296/11/1
f 297/5/1 298/6/1 299/7/1 300/8/1
f 301/9/1 302/10/1 303/11/1 304/12/1
f 305/10/1 306/5/1 307/8/1 308/11/1
f 309/5/1 310/6/1 311/7/1 312/8/1
f 313/9/1 314/10/1 315/11/1 316/12/1
f 317/10/1 318/5/1 319/8/1 320/11/1
f 321/5/1 322/6/1 323/7/1 324/8/1
f 325/9/1 326/10/1 327/11/1 328/12/1
f 329/10/1 330/5/1 331/8/1 332/11/1
f 333/5/1 334/6/1 335/7/1 336/8/1
f 337/9/1 338/10/1 339/11/1 340/12/1
f 341/10/1 342/5/1 343/8/1 344/11/1
f 345/5/1 346/6/1 347/7/1 348/8/1
f 349/5/1 350/6/1 351/7/1 352/8/1
f 353/9/1 354/10/1 355/11/1 356/12/1
f 357/9/1 358/10/1 359/11/1 360/12/1
f 361/10/1 362/5/1 363/8/1 364/11/1
f 365/5/1 366/6/1 367/7/1 368/8/1
f 369/1/1 370/2/1 371/3/1 372/4/1
f 373/1/1 374/2/1 375/3/1 376/4/1
f 377/1/1 378/2/1 379/3/1 380/4/1
f 381/1/1 382/2/1 383/3/1 384/4/1
f 385/1/1 386/2/1 387/3/1 388/4/1
f 389/1/1 390/2/1 391/3/1 392/4/1
f 393/1/1 394/2/1 395/3/1 396/4/1
f 397/1/1 398/2/1 399/3/1 400/4/1
f 401/1/1 402/2/1 403/3/1 404/4/1
f 405/1/1 406/2/1 407/3/1 408/4/1
f 409/1/1 410/2/1 411/3/1 412/4/1
f 413/1/1 414/2/1 415/3/1 416/4/1
f 417/1/1 418/2/1 419/3/1 420/4/1
f 421/1/1 422/2/1 423/3/1 424/4/1
f 425/1/1 426/2/1 427/3/1 428/4/1
f 429/1/1 430/2/1 431/3/1 432/4/1
f 433/1/1 434/2/1 435/3/1 436/4/1
f 437/1/1 438/2/1 439/3/1 440/4/1
f 441/1/1 442/2/1 443/3/1 444/4/1
f 445/9/1 446/10/1 447/11/1 448/12/1
f 449/10/1 450/5/1 451/8/1 452/11/1
f 453/5/1 454/6/1 455/7/1 456/8/1
f 457/9/1 458/10/1 459/11/1 460/12/1
f 461/10/1 462/5/1 463/8/1 464/11/1
f 465/5/1 466/6/1 467/7/1 468/8/1
f 469/9/1 470/10/1 471/11/1 472/12/1
f 473/10/1 474/5/1 475/8/1 476/11/1
f 477/5/1 478/6/1 479/7/1 480/8/1
f 481/1/1 482/2/1 483/3/1 484/4/1
f 485/1/1 486/2/1 487/3/1 488/4/1
f 489/1/1 490/2/1 491/3/1 492/4/1
f 493/1/1 494/2/1 495/3/1 496/4/1
f 497/1/1 498/2/1 499/3/1 500/4/1
f 501/1/1 502/2/1 503/3/1 504/4/1
f 505/1/1 506/2/1 507/3/1 508/4/1
f 509/1/1 510/2/1 511/3/1 512/4/1
f 513/1/1 514/2/1 515/3/1 516/4/1
f 517/1/1 518/2/1 519/3/1 520/4/1
f 521/1/1 522/2/1 523/3/1 524/4/1
f 525/1/1 526/2/1 527/3/1 528/4/1
f 529/1/1 530/2/1 531/3/1 532/4/1
f 533/1/1 534/2/1 535/3/1 536/4/1
f 537/1/1 538/2/1 539/3/1 540/4/1
f 541/1/1 542/2/1 543/3/1 544/4/1
f 545/1/1 546/2/1 547/3/1 548/4/1
f 549/1/1 550/2/1 551/3/1 552/4/1
f 553/1/1 554/2/1 555/3/1 556/4/1
f 557/1/1 558/2/1 559/3/1 560/4/1
f 561/1/1 562/2/1 563/3/1 564/4/1
f 565/1/1 566/2/1 567/3/1 568/4/1
f 569/1/1 570/2/1 571/3/1 572/4/1
f 573/1/1 574/2/1 575/3/1 576/4/1
f 577/1/1 578/2/1 579/3/1 580/4/1
f 581/1/1 582/2/1 583/3/1 584/4/1
f 585/1/1 586/2/1 587/3/1 588/4/1
f 589/1/1 590/2/1 591/3/1 592/4/1
f 593/1/1 594/2/1 595/3/1 596/4/1
f 597/1/1 598/2/1 599/3/1 600/4/1
f 601/1/1 602/2/1 603/3/1 604/4/1
f 605/1/1 606/2/1 607/3/1 608/4/1

