# Tiled2Unity generated file. Do not modify by hand.
# Wavefront file for 'FinalTestMap_mesh_0004.obj'

# Vertices (Count = 536)
v -2 -100 0
v -3 -100 0
v -3 -99 0
v -2 -99 0
v -3 -100 0
v -4 -100 0
v -4 -99 0
v -3 -99 0
v -4 -100 0
v -5 -100 0
v -5 -99 0
v -4 -99 0
v -5 -100 0
v -6 -100 0
v -6 -99 0
v -5 -99 0
v -6 -100 0
v -7 -100 0
v -7 -99 0
v -6 -99 0
v -7 -100 0
v -8 -100 0
v -8 -99 0
v -7 -99 0
v -8 -100 0
v -9 -100 0
v -9 -99 0
v -8 -99 0
v -9 -100 0
v -10 -100 0
v -10 -99 0
v -9 -99 0
v -10 -100 0
v -11 -100 0
v -11 -99 0
v -10 -99 0
v -11 -100 0
v -12 -100 0
v -12 -99 0
v -11 -99 0
v -12 -100 0
v -13 -100 0
v -13 -99 0
v -12 -99 0
v -13 -100 0
v -14 -100 0
v -14 -99 0
v -13 -99 0
v -14 -100 0
v -15 -100 0
v -15 -99 0
v -14 -99 0
v -15 -100 0
v -16 -100 0
v -16 -99 0
v -15 -99 0
v -16 -100 0
v -17 -100 0
v -17 -99 0
v -16 -99 0
v -17 -100 0
v -18 -100 0
v -18 -99 0
v -17 -99 0
v -18 -100 0
v -19 -100 0
v -19 -99 0
v -18 -99 0
v -19 -100 0
v -20 -100 0
v -20 -99 0
v -19 -99 0
v -20 -100 0
v -21 -100 0
v -21 -99 0
v -20 -99 0
v -21 -100 0
v -22 -100 0
v -22 -99 0
v -21 -99 0
v -22 -100 0
v -23 -100 0
v -23 -99 0
v -22 -99 0
v -7 -99 0
v -8 -99 0
v -8 -98 0
v -7 -98 0
v -12 -99 0
v -13 -99 0
v -13 -98 0
v -12 -98 0
v -17 -99 0
v -18 -99 0
v -18 -98 0
v -17 -98 0
v -7 -98 0
v -8 -98 0
v -8 -97 0
v -7 -97 0
v -12 -98 0
v -13 -98 0
v -13 -97 0
v -12 -97 0
v -17 -98 0
v -18 -98 0
v -18 -97 0
v -17 -97 0
v -7 -97 0
v -8 -97 0
v -8 -96 0
v -7 -96 0
v -12 -97 0
v -13 -97 0
v -13 -96 0
v -12 -96 0
v -17 -97 0
v -18 -97 0
v -18 -96 0
v -17 -96 0
v -7 -96 0
v -8 -96 0
v -8 -95 0
v -7 -95 0
v -12 -96 0
v -13 -96 0
v -13 -95 0
v -12 -95 0
v -17 -96 0
v -18 -96 0
v -18 -95 0
v -17 -95 0
v -3 -88 0
v -4 -88 0
v -4 -87 0
v -3 -87 0
v -21 -88 0
v -22 -88 0
v -22 -87 0
v -21 -87 0
v -14 -87 0
v -15 -87 0
v -15 -86 0
v -14 -86 0
v -15 -87 0
v -16 -87 0
v -16 -86 0
v -15 -86 0
v -16 -87 0
v -17 -87 0
v -17 -86 0
v -16 -86 0
v -6 -85 0
v -7 -85 0
v -7 -84 0
v -6 -84 0
v -7 -85 0
v -8 -85 0
v -8 -84 0
v -7 -84 0
v -8 -85 0
v -9 -85 0
v -9 -84 0
v -8 -84 0
v -13 -83 0
v -14 -83 0
v -14 -82 0
v -13 -82 0
v -4 -82 0
v -5 -82 0
v -5 -81 0
v -4 -81 0
v -5 -82 0
v -6 -82 0
v -6 -81 0
v -5 -81 0
v -6 -82 0
v -7 -82 0
v -7 -81 0
v -6 -81 0
v -13 -82 0
v -14 -82 0
v -14 -81 0
v -13 -81 0
v -13 -81 0
v -14 -81 0
v -14 -80 0
v -13 -80 0
v -13 -80 0
v -14 -80 0
v -14 -79 0
v -13 -79 0
v -11 -79 0
v -12 -79 0
v -12 -78 0
v -11 -78 0
v -12 -79 0
v -13 -79 0
v -13 -78 0
v -12 -78 0
v -13 -79 0
v -14 -79 0
v -14 -78 0
v -13 -78 0
v -15 -73 0
v -16 -73 0
v -16 -72 0
v -15 -72 0
v -16 -73 0
v -17 -73 0
v -17 -72 0
v -16 -72 0
v -17 -73 0
v -18 -73 0
v -18 -72 0
v -17 -72 0
v -6 -71 0
v -7 -71 0
v -7 -70 0
v -6 -70 0
v -7 -71 0
v -8 -71 0
v -8 -70 0
v -7 -70 0
v -8 -71 0
v -9 -71 0
v -9 -70 0
v -8 -70 0
v -15 -68 0
v -16 -68 0
v -16 -67 0
v -15 -67 0
v -16 -68 0
v -17 -68 0
v -17 -67 0
v -16 -67 0
v -17 -68 0
v -18 -68 0
v -18 -67 0
v -17 -67 0
v -8 -67 0
v -9 -67 0
v -9 -66 0
v -8 -66 0
v -9 -67 0
v -10 -67 0
v -10 -66 0
v -9 -66 0
v -10 -67 0
v -11 -67 0
v -11 -66 0
v -10 -66 0
v -13 -65 0
v -14 -65 0
v -14 -64 0
v -13 -64 0
v -13 -64 0
v -14 -64 0
v -14 -63 0
v -13 -63 0
v -13 -63 0
v -14 -63 0
v -14 -62 0
v -13 -62 0
v -19 -63 0
v -20 -63 0
v -20 -62 0
v -19 -62 0
v -20 -63 0
v -21 -63 0
v -21 -62 0
v -20 -62 0
v -21 -63 0
v -22 -63 0
v -22 -62 0
v -21 -62 0
v -13 -62 0
v -14 -62 0
v -14 -61 0
v -13 -61 0
v -4 -58 0
v -5 -58 0
v -5 -57 0
v -4 -57 0
v -5 -58 0
v -6 -58 0
v -6 -57 0
v -5 -57 0
v -6 -58 0
v -7 -58 0
v -7 -57 0
v -6 -57 0
v -8 -55 0
v -9 -55 0
v -9 -54 0
v -8 -54 0
v -9 -55 0
v -10 -55 0
v -10 -54 0
v -9 -54 0
v -10 -55 0
v -11 -55 0
v -11 -54 0
v -10 -54 0
v -19 -55 0
v -20 -55 0
v -20 -54 0
v -19 -54 0
v -20 -55 0
v -21 -55 0
v -21 -54 0
v -20 -54 0
v -21 -55 0
v -22 -55 0
v -22 -54 0
v -21 -54 0
v -12 -52 0
v -13 -52 0
v -13 -51 0
v -12 -51 0
v -13 -52 0
v -14 -52 0
v -14 -51 0
v -13 -51 0
v -14 -52 0
v -15 -52 0
v -15 -51 0
v -14 -51 0
v -8 -45 0
v -9 -45 0
v -9 -44 0
v -8 -44 0
v -9 -45 0
v -10 -45 0
v -10 -44 0
v -9 -44 0
v -10 -45 0
v -11 -45 0
v -11 -44 0
v -10 -44 0
v -15 -45 0
v -16 -45 0
v -16 -44 0
v -15 -44 0
v -16 -45 0
v -17 -45 0
v -17 -44 0
v -16 -44 0
v -17 -45 0
v -18 -45 0
v -18 -44 0
v -17 -44 0
v -18 -39 0
v -19 -39 0
v -19 -38 0
v -18 -38 0
v -19 -39 0
v -20 -39 0
v -20 -38 0
v -19 -38 0
v -20 -39 0
v -21 -39 0
v -21 -38 0
v -20 -38 0
v -5 -38 0
v -6 -38 0
v -6 -37 0
v -5 -37 0
v -6 -38 0
v -7 -38 0
v -7 -37 0
v -6 -37 0
v -7 -38 0
v -8 -38 0
v -8 -37 0
v -7 -37 0
v -15 -35 0
v -16 -35 0
v -16 -34 0
v -15 -34 0
v -16 -35 0
v -17 -35 0
v -17 -34 0
v -16 -34 0
v -17 -35 0
v -18 -35 0
v -18 -34 0
v -17 -34 0
v -7 -33 0
v -8 -33 0
v -8 -32 0
v -7 -32 0
v -8 -33 0
v -9 -33 0
v -9 -32 0
v -8 -32 0
v -9 -33 0
v -10 -33 0
v -10 -32 0
v -9 -32 0
v -14 -31 0
v -15 -31 0
v -15 -30 0
v -14 -30 0
v -15 -31 0
v -16 -31 0
v -16 -30 0
v -15 -30 0
v -16 -31 0
v -17 -31 0
v -17 -30 0
v -16 -30 0
v -16 -26 0
v -17 -26 0
v -17 -25 0
v -16 -25 0
v -17 -26 0
v -18 -26 0
v -18 -25 0
v -17 -25 0
v -18 -26 0
v -19 -26 0
v -19 -25 0
v -18 -25 0
v -3 -24 0
v -4 -24 0
v -4 -23 0
v -3 -23 0
v -4 -24 0
v -5 -24 0
v -5 -23 0
v -4 -23 0
v -5 -24 0
v -6 -24 0
v -6 -23 0
v -5 -23 0
v -9 -23 0
v -10 -23 0
v -10 -22 0
v -9 -22 0
v -10 -23 0
v -11 -23 0
v -11 -22 0
v -10 -22 0
v -11 -23 0
v -12 -23 0
v -12 -22 0
v -11 -22 0
v -18 -21 0
v -19 -21 0
v -19 -20 0
v -18 -20 0
v -19 -21 0
v -20 -21 0
v -20 -20 0
v -19 -20 0
v -20 -21 0
v -21 -21 0
v -21 -20 0
v -20 -20 0
v -13 -20 0
v -14 -20 0
v -14 -19 0
v -13 -19 0
v -13 -19 0
v -14 -19 0
v -14 -18 0
v -13 -18 0
v -13 -18 0
v -14 -18 0
v -14 -17 0
v -13 -17 0
v -3 -16 0
v -4 -16 0
v -4 -15 0
v -3 -15 0
v -4 -16 0
v -5 -16 0
v -5 -15 0
v -4 -15 0
v -11 -16 0
v -12 -16 0
v -12 -15 0
v -11 -15 0
v -12 -16 0
v -13 -16 0
v -13 -15 0
v -12 -15 0
v -13 -16 0
v -14 -16 0
v -14 -15 0
v -13 -15 0
v -14 -16 0
v -15 -16 0
v -15 -15 0
v -14 -15 0
v -15 -16 0
v -16 -16 0
v -16 -15 0
v -15 -15 0
v -7 -12 0
v -8 -12 0
v -8 -11 0
v -7 -11 0
v -8 -12 0
v -9 -12 0
v -9 -11 0
v -8 -11 0
v -9 -12 0
v -10 -12 0
v -10 -11 0
v -9 -11 0
v -15 -12 0
v -16 -12 0
v -16 -11 0
v -15 -11 0
v -16 -12 0
v -17 -12 0
v -17 -11 0
v -16 -11 0
v -17 -12 0
v -18 -12 0
v -18 -11 0
v -17 -11 0
v -11 -10 0
v -12 -10 0
v -12 -9 0
v -11 -9 0
v -12 -10 0
v -13 -10 0
v -13 -9 0
v -12 -9 0
v -13 -10 0
v -14 -10 0
v -14 -9 0
v -13 -9 0

# Texture cooridinates (Count = 19)
vt 0.75 0.625
vt 0.875 0.625
vt 0.875 0.75
vt 0.75 0.75
vt 0.625 0.875
vt 0.75 0.875
vt 0.75 1
vt 0.625 1
vt 0.375 0.875
vt 0.5 0.875
vt 0.5 1
vt 0.375 1
vt 0 0.75
vt 0.125 0.75
vt 0.125 0.875
vt 0 0.875
vt 0.25 0.75
vt 0.25 0.875
vt 0.375 0.75

# Normal
vn 0 0 -1

# Mesh description
g FinalTestMap_mesh_0004

# Faces
f 1/1/1 2/2/1 3/3/1 4/4/1
f 5/1/1 6/2/1 7/3/1 8/4/1
f 9/1/1 10/2/1 11/3/1 12/4/1
f 13/1/1 14/2/1 15/3/1 16/4/1
f 17/1/1 18/2/1 19/3/1 20/4/1
f 21/1/1 22/2/1 23/3/1 24/4/1
f 25/1/1 26/2/1 27/3/1 28/4/1
f 29/1/1 30/2/1 31/3/1 32/4/1
f 33/1/1 34/2/1 35/3/1 36/4/1
f 37/1/1 38/2/1 39/3/1 40/4/1
f 41/1/1 42/2/1 43/3/1 44/4/1
f 45/1/1 46/2/1 47/3/1 48/4/1
f 49/1/1 50/2/1 51/3/1 52/4/1
f 53/1/1 54/2/1 55/3/1 56/4/1
f 57/1/1 58/2/1 59/3/1 60/4/1
f 61/1/1 62/2/1 63/3/1 64/4/1
f 65/1/1 66/2/1 67/3/1 68/4/1
f 69/1/1 70/2/1 71/3/1 72/4/1
f 73/1/1 74/2/1 75/3/1 76/4/1
f 77/1/1 78/2/1 79/3/1 80/4/1
f 81/1/1 82/2/1 83/3/1 84/4/1
f 85/1/1 86/2/1 87/3/1 88/4/1
f 89/1/1 90/2/1 91/3/1 92/4/1
f 93/1/1 94/2/1 95/3/1 96/4/1
f 97/1/1 98/2/1 99/3/1 100/4/1
f 101/1/1 102/2/1 103/3/1 104/4/1
f 105/1/1 106/2/1 107/3/1 108/4/1
f 109/1/1 110/2/1 111/3/1 112/4/1
f 113/1/1 114/2/1 115/3/1 116/4/1
f 117/1/1 118/2/1 119/3/1 120/4/1
f 121/1/1 122/2/1 123/3/1 124/4/1
f 125/1/1 126/2/1 127/3/1 128/4/1
f 129/1/1 130/2/1 131/3/1 132/4/1
f 133/5/1 134/6/1 135/7/1 136/8/1
f 137/9/1 138/10/1 139/11/1 140/12/1
f 141/13/1 142/14/1 143/15/1 144/16/1
f 145/14/1 146/17/1 147/18/1 148/15/1
f 149/17/1 150/19/1 151/9/1 152/18/1
f 153/9/1 154/10/1 155/11/1 156/12/1
f 157/10/1 158/5/1 159/8/1 160/11/1
f 161/5/1 162/6/1 163/7/1 164/8/1
f 165/1/1 166/2/1 167/3/1 168/4/1
f 169/9/1 170/10/1 171/11/1 172/12/1
f 173/10/1 174/5/1 175/8/1 176/11/1
f 177/5/1 178/6/1 179/7/1 180/8/1
f 181/1/1 182/2/1 183/3/1 184/4/1
f 185/1/1 186/2/1 187/3/1 188/4/1
f 189/1/1 190/2/1 191/3/1 192/4/1
f 193/1/1 194/2/1 195/3/1 196/4/1
f 197/1/1 198/2/1 199/3/1 200/4/1
f 201/1/1 202/2/1 203/3/1 204/4/1
f 205/9/1 206/10/1 207/11/1 208/12/1
f 209/10/1 210/5/1 211/8/1 212/11/1
f 213/5/1 214/6/1 215/7/1 216/8/1
f 217/9/1 218/10/1 219/11/1 220/12/1
f 221/10/1 222/5/1 223/8/1 224/11/1
f 225/5/1 226/6/1 227/7/1 228/8/1
f 229/9/1 230/10/1 231/11/1 232/12/1
f 233/10/1 234/5/1 235/8/1 236/11/1
f 237/5/1 238/6/1 239/7/1 240/8/1
f 241/9/1 242/10/1 243/11/1 244/12/1
f 245/10/1 246/5/1 247/8/1 248/11/1
f 249/5/1 250/6/1 251/7/1 252/8/1
f 253/1/1 254/2/1 255/3/1 256/4/1
f 257/1/1 258/2/1 259/3/1 260/4/1
f 261/1/1 262/2/1 263/3/1 264/4/1
f 265/13/1 266/14/1 267/15/1 268/16/1
f 269/14/1 270/17/1 271/18/1 272/15/1
f 273/17/1 274/19/1 275/9/1 276/18/1
f 277/1/1 278/2/1 279/3/1 280/4/1
f 281/13/1 282/14/1 283/15/1 284/16/1
f 285/14/1 286/17/1 287/18/1 288/15/1
f 289/17/1 290/19/1 291/9/1 292/18/1
f 293/9/1 294/10/1 295/11/1 296/12/1
f 297/10/1 298/5/1 299/8/1 300/11/1
f 301/5/1 302/6/1 303/7/1 304/8/1
f 305/9/1 306/10/1 307/11/1 308/12/1
f 309/10/1 310/5/1 311/8/1 312/11/1
f 313/5/1 314/6/1 315/7/1 316/8/1
f 317/9/1 318/10/1 319/11/1 320/12/1
f 321/10/1 322/5/1 323/8/1 324/11/1
f 325/5/1 326/6/1 327/7/1 328/8/1
f 329/9/1 330/10/1 331/11/1 332/12/1
f 333/10/1 334/5/1 335/8/1 336/11/1
f 337/5/1 338/6/1 339/7/1 340/8/1
f 341/9/1 342/10/1 343/11/1 344/12/1
f 345/10/1 346/5/1 347/8/1 348/11/1
f 349/5/1 350/6/1 351/7/1 352/8/1
f 353/9/1 354/10/1 355/11/1 356/12/1
f 357/10/1 358/5/1 359/8/1 360/11/1
f 361/5/1 362/6/1 363/7/1 364/8/1
f 365/9/1 366/10/1 367/11/1 368/12/1
f 369/10/1 370/5/1 371/8/1 372/11/1
f 373/5/1 374/6/1 375/7/1 376/8/1
f 377/9/1 378/10/1 379/11/1 380/12/1
f 381/10/1 382/5/1 383/8/1 384/11/1
f 385/5/1 386/6/1 387/7/1 388/8/1
f 389/13/1 390/14/1 391/15/1 392/16/1
f 393/14/1 394/17/1 395/18/1 396/15/1
f 397/17/1 398/19/1 399/9/1 400/18/1
f 401/13/1 402/14/1 403/15/1 404/16/1
f 405/14/1 406/17/1 407/18/1 408/15/1
f 409/17/1 410/19/1 411/9/1 412/18/1
f 413/9/1 414/10/1 415/11/1 416/12/1
f 417/10/1 418/5/1 419/8/1 420/11/1
f 421/5/1 422/6/1 423/7/1 424/8/1
f 425/9/1 426/10/1 427/11/1 428/12/1
f 429/10/1 430/5/1 431/8/1 432/11/1
f 433/5/1 434/6/1 435/7/1 436/8/1
f 437/9/1 438/10/1 439/11/1 440/12/1
f 441/10/1 442/5/1 443/8/1 444/11/1
f 445/5/1 446/6/1 447/7/1 448/8/1
f 449/9/1 450/10/1 451/11/1 452/12/1
f 453/10/1 454/5/1 455/8/1 456/11/1
f 457/5/1 458/6/1 459/7/1 460/8/1
f 461/1/1 462/2/1 463/3/1 464/4/1
f 465/1/1 466/2/1 467/3/1 468/4/1
f 469/1/1 470/2/1 471/3/1 472/4/1
f 473/1/1 474/2/1 475/3/1 476/4/1
f 477/1/1 478/2/1 479/3/1 480/4/1
f 481/1/1 482/2/1 483/3/1 484/4/1
f 485/1/1 486/2/1 487/3/1 488/4/1
f 489/1/1 490/2/1 491/3/1 492/4/1
f 493/1/1 494/2/1 495/3/1 496/4/1
f 497/1/1 498/2/1 499/3/1 500/4/1
f 501/9/1 502/10/1 503/11/1 504/12/1
f 505/10/1 506/5/1 507/8/1 508/11/1
f 509/5/1 510/6/1 511/7/1 512/8/1
f 513/13/1 514/14/1 515/15/1 516/16/1
f 517/14/1 518/17/1 519/18/1 520/15/1
f 521/17/1 522/19/1 523/9/1 524/18/1
f 525/13/1 526/14/1 527/15/1 528/16/1
f 529/14/1 530/17/1 531/18/1 532/15/1
f 533/17/1 534/19/1 535/9/1 536/18/1

