# Tiled2Unity generated file. Do not modify by hand.
# Wavefront file for 'lvl1_03_mesh_0002.obj'

# Vertices (Count = 196)
v 0 -20 0
v -1 -20 0
v -1 -19 0
v 0 -19 0
v -24 -20 0
v -25 -20 0
v -25 -19 0
v -24 -19 0
v 0 -19 0
v -1 -19 0
v -1 -18 0
v 0 -18 0
v -24 -19 0
v -25 -19 0
v -25 -18 0
v -24 -18 0
v 0 -18 0
v -1 -18 0
v -1 -17 0
v 0 -17 0
v -24 -18 0
v -25 -18 0
v -25 -17 0
v -24 -17 0
v 0 -17 0
v -1 -17 0
v -1 -16 0
v 0 -16 0
v -3 -17 0
v -4 -17 0
v -4 -16 0
v -3 -16 0
v -24 -17 0
v -25 -17 0
v -25 -16 0
v -24 -16 0
v 0 -16 0
v -1 -16 0
v -1 -15 0
v 0 -15 0
v -15 -16 0
v -16 -16 0
v -16 -15 0
v -15 -15 0
v -24 -16 0
v -25 -16 0
v -25 -15 0
v -24 -15 0
v 0 -15 0
v -1 -15 0
v -1 -14 0
v 0 -14 0
v -24 -15 0
v -25 -15 0
v -25 -14 0
v -24 -14 0
v 0 -14 0
v -1 -14 0
v -1 -13 0
v 0 -13 0
v -24 -14 0
v -25 -14 0
v -25 -13 0
v -24 -13 0
v 0 -13 0
v -1 -13 0
v -1 -12 0
v 0 -12 0
v -24 -13 0
v -25 -13 0
v -25 -12 0
v -24 -12 0
v 0 -12 0
v -1 -12 0
v -1 -11 0
v 0 -11 0
v -9 -12 0
v -10 -12 0
v -10 -11 0
v -9 -11 0
v -24 -12 0
v -25 -12 0
v -25 -11 0
v -24 -11 0
v 0 -11 0
v -1 -11 0
v -1 -10 0
v 0 -10 0
v -4 -11 0
v -5 -11 0
v -5 -10 0
v -4 -10 0
v -24 -11 0
v -25 -11 0
v -25 -10 0
v -24 -10 0
v 0 -10 0
v -1 -10 0
v -1 -9 0
v 0 -9 0
v -20 -10 0
v -21 -10 0
v -21 -9 0
v -20 -9 0
v -24 -10 0
v -25 -10 0
v -25 -9 0
v -24 -9 0
v 0 -9 0
v -1 -9 0
v -1 -8 0
v 0 -8 0
v -24 -9 0
v -25 -9 0
v -25 -8 0
v -24 -8 0
v 0 -8 0
v -1 -8 0
v -1 -7 0
v 0 -7 0
v -24 -8 0
v -25 -8 0
v -25 -7 0
v -24 -7 0
v 0 -7 0
v -1 -7 0
v -1 -6 0
v 0 -6 0
v -24 -7 0
v -25 -7 0
v -25 -6 0
v -24 -6 0
v 0 -6 0
v -1 -6 0
v -1 -5 0
v 0 -5 0
v -24 -6 0
v -25 -6 0
v -25 -5 0
v -24 -5 0
v 0 -5 0
v -1 -5 0
v -1 -4 0
v 0 -4 0
v -2 -5 0
v -3 -5 0
v -3 -4 0
v -2 -4 0
v -24 -5 0
v -25 -5 0
v -25 -4 0
v -24 -4 0
v 0 -4 0
v -1 -4 0
v -1 -3 0
v 0 -3 0
v -7 -4 0
v -8 -4 0
v -8 -3 0
v -7 -3 0
v -12 -4 0
v -13 -4 0
v -13 -3 0
v -12 -3 0
v -24 -4 0
v -25 -4 0
v -25 -3 0
v -24 -3 0
v 0 -3 0
v -1 -3 0
v -1 -2 0
v 0 -2 0
v -24 -3 0
v -25 -3 0
v -25 -2 0
v -24 -2 0
v 0 -2 0
v -1 -2 0
v -1 -1 0
v 0 -1 0
v -15 -2 0
v -16 -2 0
v -16 -1 0
v -15 -1 0
v -24 -2 0
v -25 -2 0
v -25 -1 0
v -24 -1 0
v 0 -1 0
v -1 -1 0
v -1 0 0
v 0 0 0
v -24 -1 0
v -25 -1 0
v -25 0 0
v -24 0 0

# Texture cooridinates (Count = 8)
vt 0.75 0.625
vt 0.875 0.625
vt 0.875 0.75
vt 0.75 0.75
vt 0 0.875
vt 0.125 0.875
vt 0.125 1
vt 0 1

# Normal
vn 0 0 -1

# Mesh description
g lvl1_03_mesh_0002

# Faces
f 1/1/1 2/2/1 3/3/1 4/4/1
f 5/1/1 6/2/1 7/3/1 8/4/1
f 9/1/1 10/2/1 11/3/1 12/4/1
f 13/1/1 14/2/1 15/3/1 16/4/1
f 17/1/1 18/2/1 19/3/1 20/4/1
f 21/1/1 22/2/1 23/3/1 24/4/1
f 25/1/1 26/2/1 27/3/1 28/4/1
f 29/5/1 30/6/1 31/7/1 32/8/1
f 33/1/1 34/2/1 35/3/1 36/4/1
f 37/1/1 38/2/1 39/3/1 40/4/1
f 41/5/1 42/6/1 43/7/1 44/8/1
f 45/1/1 46/2/1 47/3/1 48/4/1
f 49/1/1 50/2/1 51/3/1 52/4/1
f 53/1/1 54/2/1 55/3/1 56/4/1
f 57/1/1 58/2/1 59/3/1 60/4/1
f 61/1/1 62/2/1 63/3/1 64/4/1
f 65/1/1 66/2/1 67/3/1 68/4/1
f 69/1/1 70/2/1 71/3/1 72/4/1
f 73/1/1 74/2/1 75/3/1 76/4/1
f 77/5/1 78/6/1 79/7/1 80/8/1
f 81/1/1 82/2/1 83/3/1 84/4/1
f 85/1/1 86/2/1 87/3/1 88/4/1
f 89/5/1 90/6/1 91/7/1 92/8/1
f 93/1/1 94/2/1 95/3/1 96/4/1
f 97/1/1 98/2/1 99/3/1 100/4/1
f 101/5/1 102/6/1 103/7/1 104/8/1
f 105/1/1 106/2/1 107/3/1 108/4/1
f 109/1/1 110/2/1 111/3/1 112/4/1
f 113/1/1 114/2/1 115/3/1 116/4/1
f 117/1/1 118/2/1 119/3/1 120/4/1
f 121/1/1 122/2/1 123/3/1 124/4/1
f 125/1/1 126/2/1 127/3/1 128/4/1
f 129/1/1 130/2/1 131/3/1 132/4/1
f 133/1/1 134/2/1 135/3/1 136/4/1
f 137/1/1 138/2/1 139/3/1 140/4/1
f 141/1/1 142/2/1 143/3/1 144/4/1
f 145/5/1 146/6/1 147/7/1 148/8/1
f 149/1/1 150/2/1 151/3/1 152/4/1
f 153/1/1 154/2/1 155/3/1 156/4/1
f 157/5/1 158/6/1 159/7/1 160/8/1
f 161/5/1 162/6/1 163/7/1 164/8/1
f 165/1/1 166/2/1 167/3/1 168/4/1
f 169/1/1 170/2/1 171/3/1 172/4/1
f 173/1/1 174/2/1 175/3/1 176/4/1
f 177/1/1 178/2/1 179/3/1 180/4/1
f 181/5/1 182/6/1 183/7/1 184/8/1
f 185/1/1 186/2/1 187/3/1 188/4/1
f 189/1/1 190/2/1 191/3/1 192/4/1
f 193/1/1 194/2/1 195/3/1 196/4/1

