# Tiled2Unity generated file. Do not modify by hand.
# Wavefront file for 'lvl1_03_mesh_0004.obj'

# Vertices (Count = 60)
v -3 -7 0
v -4 -7 0
v -4 -6 0
v -3 -6 0
v -4 -7 0
v -5 -7 0
v -5 -6 0
v -4 -6 0
v -5 -7 0
v -6 -7 0
v -6 -6 0
v -5 -6 0
v -19 -7 0
v -20 -7 0
v -20 -6 0
v -19 -6 0
v -20 -7 0
v -21 -7 0
v -21 -6 0
v -20 -6 0
v -21 -7 0
v -22 -7 0
v -22 -6 0
v -21 -6 0
v -11 -3 0
v -12 -3 0
v -12 -2 0
v -11 -2 0
v -12 -3 0
v -13 -3 0
v -13 -2 0
v -12 -2 0
v -13 -3 0
v -14 -3 0
v -14 -2 0
v -13 -2 0
v -2 -2 0
v -3 -2 0
v -3 -1 0
v -2 -1 0
v -3 -2 0
v -4 -2 0
v -4 -1 0
v -3 -1 0
v -4 -2 0
v -5 -2 0
v -5 -1 0
v -4 -1 0
v -20 -2 0
v -21 -2 0
v -21 -1 0
v -20 -1 0
v -21 -2 0
v -22 -2 0
v -22 -1 0
v -21 -1 0
v -22 -2 0
v -23 -2 0
v -23 -1 0
v -22 -1 0

# Texture cooridinates (Count = 15)
vt 0.375 0.875
vt 0.5 0.875
vt 0.5 1
vt 0.375 1
vt 0.625 0.875
vt 0.625 1
vt 0.75 0.875
vt 0.75 1
vt 0 0.75
vt 0.125 0.75
vt 0.125 0.875
vt 0 0.875
vt 0.25 0.75
vt 0.25 0.875
vt 0.375 0.75

# Normal
vn 0 0 -1

# Mesh description
g lvl1_03_mesh_0004

# Faces
f 1/1/1 2/2/1 3/3/1 4/4/1
f 5/2/1 6/5/1 7/6/1 8/3/1
f 9/5/1 10/7/1 11/8/1 12/6/1
f 13/1/1 14/2/1 15/3/1 16/4/1
f 17/2/1 18/5/1 19/6/1 20/3/1
f 21/5/1 22/7/1 23/8/1 24/6/1
f 25/9/1 26/10/1 27/11/1 28/12/1
f 29/10/1 30/13/1 31/14/1 32/11/1
f 33/13/1 34/15/1 35/1/1 36/14/1
f 37/9/1 38/10/1 39/11/1 40/12/1
f 41/10/1 42/13/1 43/14/1 44/11/1
f 45/13/1 46/15/1 47/1/1 48/14/1
f 49/1/1 50/2/1 51/3/1 52/4/1
f 53/2/1 54/5/1 55/6/1 56/3/1
f 57/5/1 58/7/1 59/8/1 60/6/1

