# Tiled2Unity generated file. Do not modify by hand.
# Wavefront file for 'lvl2_01_mesh_0005.obj'

# Vertices (Count = 736)
v -6 -2 0
v -7 -2 0
v -7 -1 0
v -6 -1 0
v -7 -2 0
v -8 -2 0
v -8 -1 0
v -7 -1 0
v -13 -2 0
v -14 -2 0
v -14 -1 0
v -13 -1 0
v -14 -2 0
v -15 -2 0
v -15 -1 0
v -14 -1 0
v -20 -2 0
v -21 -2 0
v -21 -1 0
v -20 -1 0
v -21 -2 0
v -22 -2 0
v -22 -1 0
v -21 -1 0
v -27 -2 0
v -28 -2 0
v -28 -1 0
v -27 -1 0
v -28 -2 0
v -29 -2 0
v -29 -1 0
v -28 -1 0
v -6 -3 0
v -7 -3 0
v -7 -2 0
v -6 -2 0
v -7 -3 0
v -8 -3 0
v -8 -2 0
v -7 -2 0
v -13 -3 0
v -14 -3 0
v -14 -2 0
v -13 -2 0
v -14 -3 0
v -15 -3 0
v -15 -2 0
v -14 -2 0
v -20 -3 0
v -21 -3 0
v -21 -2 0
v -20 -2 0
v -21 -3 0
v -22 -3 0
v -22 -2 0
v -21 -2 0
v -27 -3 0
v -28 -3 0
v -28 -2 0
v -27 -2 0
v -28 -3 0
v -29 -3 0
v -29 -2 0
v -28 -2 0
v -6 -4 0
v -7 -4 0
v -7 -3 0
v -6 -3 0
v -7 -4 0
v -8 -4 0
v -8 -3 0
v -7 -3 0
v -13 -4 0
v -14 -4 0
v -14 -3 0
v -13 -3 0
v -14 -4 0
v -15 -4 0
v -15 -3 0
v -14 -3 0
v -20 -4 0
v -21 -4 0
v -21 -3 0
v -20 -3 0
v -21 -4 0
v -22 -4 0
v -22 -3 0
v -21 -3 0
v -27 -4 0
v -28 -4 0
v -28 -3 0
v -27 -3 0
v -28 -4 0
v -29 -4 0
v -29 -3 0
v -28 -3 0
v -6 -5 0
v -7 -5 0
v -7 -4 0
v -6 -4 0
v -7 -5 0
v -8 -5 0
v -8 -4 0
v -7 -4 0
v -13 -5 0
v -14 -5 0
v -14 -4 0
v -13 -4 0
v -14 -5 0
v -15 -5 0
v -15 -4 0
v -14 -4 0
v -20 -5 0
v -21 -5 0
v -21 -4 0
v -20 -4 0
v -21 -5 0
v -22 -5 0
v -22 -4 0
v -21 -4 0
v -27 -5 0
v -28 -5 0
v -28 -4 0
v -27 -4 0
v -28 -5 0
v -29 -5 0
v -29 -4 0
v -28 -4 0
v -6 -6 0
v -7 -6 0
v -7 -5 0
v -6 -5 0
v -7 -6 0
v -8 -6 0
v -8 -5 0
v -7 -5 0
v -13 -6 0
v -14 -6 0
v -14 -5 0
v -13 -5 0
v -14 -6 0
v -15 -6 0
v -15 -5 0
v -14 -5 0
v -20 -6 0
v -21 -6 0
v -21 -5 0
v -20 -5 0
v -21 -6 0
v -22 -6 0
v -22 -5 0
v -21 -5 0
v -27 -6 0
v -28 -6 0
v -28 -5 0
v -27 -5 0
v -28 -6 0
v -29 -6 0
v -29 -5 0
v -28 -5 0
v -6 -7 0
v -7 -7 0
v -7 -6 0
v -6 -6 0
v -7 -7 0
v -8 -7 0
v -8 -6 0
v -7 -6 0
v -13 -7 0
v -14 -7 0
v -14 -6 0
v -13 -6 0
v -14 -7 0
v -15 -7 0
v -15 -6 0
v -14 -6 0
v -20 -7 0
v -21 -7 0
v -21 -6 0
v -20 -6 0
v -21 -7 0
v -22 -7 0
v -22 -6 0
v -21 -6 0
v -27 -7 0
v -28 -7 0
v -28 -6 0
v -27 -6 0
v -28 -7 0
v -29 -7 0
v -29 -6 0
v -28 -6 0
v -6 -8 0
v -7 -8 0
v -7 -7 0
v -6 -7 0
v -7 -8 0
v -8 -8 0
v -8 -7 0
v -7 -7 0
v -13 -8 0
v -14 -8 0
v -14 -7 0
v -13 -7 0
v -14 -8 0
v -15 -8 0
v -15 -7 0
v -14 -7 0
v -20 -8 0
v -21 -8 0
v -21 -7 0
v -20 -7 0
v -21 -8 0
v -22 -8 0
v -22 -7 0
v -21 -7 0
v -27 -8 0
v -28 -8 0
v -28 -7 0
v -27 -7 0
v -28 -8 0
v -29 -8 0
v -29 -7 0
v -28 -7 0
v -6 -9 0
v -7 -9 0
v -7 -8 0
v -6 -8 0
v -7 -9 0
v -8 -9 0
v -8 -8 0
v -7 -8 0
v -13 -9 0
v -14 -9 0
v -14 -8 0
v -13 -8 0
v -14 -9 0
v -15 -9 0
v -15 -8 0
v -14 -8 0
v -20 -9 0
v -21 -9 0
v -21 -8 0
v -20 -8 0
v -21 -9 0
v -22 -9 0
v -22 -8 0
v -21 -8 0
v -27 -9 0
v -28 -9 0
v -28 -8 0
v -27 -8 0
v -28 -9 0
v -29 -9 0
v -29 -8 0
v -28 -8 0
v -6 -10 0
v -7 -10 0
v -7 -9 0
v -6 -9 0
v -7 -10 0
v -8 -10 0
v -8 -9 0
v -7 -9 0
v -13 -10 0
v -14 -10 0
v -14 -9 0
v -13 -9 0
v -14 -10 0
v -15 -10 0
v -15 -9 0
v -14 -9 0
v -20 -10 0
v -21 -10 0
v -21 -9 0
v -20 -9 0
v -21 -10 0
v -22 -10 0
v -22 -9 0
v -21 -9 0
v -27 -10 0
v -28 -10 0
v -28 -9 0
v -27 -9 0
v -28 -10 0
v -29 -10 0
v -29 -9 0
v -28 -9 0
v -6 -11 0
v -7 -11 0
v -7 -10 0
v -6 -10 0
v -7 -11 0
v -8 -11 0
v -8 -10 0
v -7 -10 0
v -13 -11 0
v -14 -11 0
v -14 -10 0
v -13 -10 0
v -14 -11 0
v -15 -11 0
v -15 -10 0
v -14 -10 0
v -20 -11 0
v -21 -11 0
v -21 -10 0
v -20 -10 0
v -21 -11 0
v -22 -11 0
v -22 -10 0
v -21 -10 0
v -27 -11 0
v -28 -11 0
v -28 -10 0
v -27 -10 0
v -28 -11 0
v -29 -11 0
v -29 -10 0
v -28 -10 0
v -6 -12 0
v -7 -12 0
v -7 -11 0
v -6 -11 0
v -7 -12 0
v -8 -12 0
v -8 -11 0
v -7 -11 0
v -13 -12 0
v -14 -12 0
v -14 -11 0
v -13 -11 0
v -14 -12 0
v -15 -12 0
v -15 -11 0
v -14 -11 0
v -20 -12 0
v -21 -12 0
v -21 -11 0
v -20 -11 0
v -21 -12 0
v -22 -12 0
v -22 -11 0
v -21 -11 0
v -27 -12 0
v -28 -12 0
v -28 -11 0
v -27 -11 0
v -28 -12 0
v -29 -12 0
v -29 -11 0
v -28 -11 0
v -6 -13 0
v -7 -13 0
v -7 -12 0
v -6 -12 0
v -7 -13 0
v -8 -13 0
v -8 -12 0
v -7 -12 0
v -13 -13 0
v -14 -13 0
v -14 -12 0
v -13 -12 0
v -14 -13 0
v -15 -13 0
v -15 -12 0
v -14 -12 0
v -20 -13 0
v -21 -13 0
v -21 -12 0
v -20 -12 0
v -21 -13 0
v -22 -13 0
v -22 -12 0
v -21 -12 0
v -27 -13 0
v -28 -13 0
v -28 -12 0
v -27 -12 0
v -28 -13 0
v -29 -13 0
v -29 -12 0
v -28 -12 0
v -6 -14 0
v -7 -14 0
v -7 -13 0
v -6 -13 0
v -7 -14 0
v -8 -14 0
v -8 -13 0
v -7 -13 0
v -13 -14 0
v -14 -14 0
v -14 -13 0
v -13 -13 0
v -14 -14 0
v -15 -14 0
v -15 -13 0
v -14 -13 0
v -20 -14 0
v -21 -14 0
v -21 -13 0
v -20 -13 0
v -21 -14 0
v -22 -14 0
v -22 -13 0
v -21 -13 0
v -27 -14 0
v -28 -14 0
v -28 -13 0
v -27 -13 0
v -28 -14 0
v -29 -14 0
v -29 -13 0
v -28 -13 0
v -6 -15 0
v -7 -15 0
v -7 -14 0
v -6 -14 0
v -7 -15 0
v -8 -15 0
v -8 -14 0
v -7 -14 0
v -13 -15 0
v -14 -15 0
v -14 -14 0
v -13 -14 0
v -14 -15 0
v -15 -15 0
v -15 -14 0
v -14 -14 0
v -20 -15 0
v -21 -15 0
v -21 -14 0
v -20 -14 0
v -21 -15 0
v -22 -15 0
v -22 -14 0
v -21 -14 0
v -27 -15 0
v -28 -15 0
v -28 -14 0
v -27 -14 0
v -28 -15 0
v -29 -15 0
v -29 -14 0
v -28 -14 0
v -6 -16 0
v -7 -16 0
v -7 -15 0
v -6 -15 0
v -7 -16 0
v -8 -16 0
v -8 -15 0
v -7 -15 0
v -13 -16 0
v -14 -16 0
v -14 -15 0
v -13 -15 0
v -14 -16 0
v -15 -16 0
v -15 -15 0
v -14 -15 0
v -20 -16 0
v -21 -16 0
v -21 -15 0
v -20 -15 0
v -21 -16 0
v -22 -16 0
v -22 -15 0
v -21 -15 0
v -27 -16 0
v -28 -16 0
v -28 -15 0
v -27 -15 0
v -28 -16 0
v -29 -16 0
v -29 -15 0
v -28 -15 0
v -6 -17 0
v -7 -17 0
v -7 -16 0
v -6 -16 0
v -7 -17 0
v -8 -17 0
v -8 -16 0
v -7 -16 0
v -13 -17 0
v -14 -17 0
v -14 -16 0
v -13 -16 0
v -14 -17 0
v -15 -17 0
v -15 -16 0
v -14 -16 0
v -20 -17 0
v -21 -17 0
v -21 -16 0
v -20 -16 0
v -21 -17 0
v -22 -17 0
v -22 -16 0
v -21 -16 0
v -27 -17 0
v -28 -17 0
v -28 -16 0
v -27 -16 0
v -28 -17 0
v -29 -17 0
v -29 -16 0
v -28 -16 0
v -6 -18 0
v -7 -18 0
v -7 -17 0
v -6 -17 0
v -7 -18 0
v -8 -18 0
v -8 -17 0
v -7 -17 0
v -13 -18 0
v -14 -18 0
v -14 -17 0
v -13 -17 0
v -14 -18 0
v -15 -18 0
v -15 -17 0
v -14 -17 0
v -20 -18 0
v -21 -18 0
v -21 -17 0
v -20 -17 0
v -21 -18 0
v -22 -18 0
v -22 -17 0
v -21 -17 0
v -27 -18 0
v -28 -18 0
v -28 -17 0
v -27 -17 0
v -28 -18 0
v -29 -18 0
v -29 -17 0
v -28 -17 0
v -6 -19 0
v -7 -19 0
v -7 -18 0
v -6 -18 0
v -7 -19 0
v -8 -19 0
v -8 -18 0
v -7 -18 0
v -13 -19 0
v -14 -19 0
v -14 -18 0
v -13 -18 0
v -14 -19 0
v -15 -19 0
v -15 -18 0
v -14 -18 0
v -20 -19 0
v -21 -19 0
v -21 -18 0
v -20 -18 0
v -21 -19 0
v -22 -19 0
v -22 -18 0
v -21 -18 0
v -27 -19 0
v -28 -19 0
v -28 -18 0
v -27 -18 0
v -28 -19 0
v -29 -19 0
v -29 -18 0
v -28 -18 0
v -6 -20 0
v -7 -20 0
v -7 -19 0
v -6 -19 0
v -7 -20 0
v -8 -20 0
v -8 -19 0
v -7 -19 0
v -13 -20 0
v -14 -20 0
v -14 -19 0
v -13 -19 0
v -14 -20 0
v -15 -20 0
v -15 -19 0
v -14 -19 0
v -20 -20 0
v -21 -20 0
v -21 -19 0
v -20 -19 0
v -21 -20 0
v -22 -20 0
v -22 -19 0
v -21 -19 0
v -27 -20 0
v -28 -20 0
v -28 -19 0
v -27 -19 0
v -28 -20 0
v -29 -20 0
v -29 -19 0
v -28 -19 0
v -6 -21 0
v -7 -21 0
v -7 -20 0
v -6 -20 0
v -7 -21 0
v -8 -21 0
v -8 -20 0
v -7 -20 0
v -13 -21 0
v -14 -21 0
v -14 -20 0
v -13 -20 0
v -14 -21 0
v -15 -21 0
v -15 -20 0
v -14 -20 0
v -20 -21 0
v -21 -21 0
v -21 -20 0
v -20 -20 0
v -21 -21 0
v -22 -21 0
v -22 -20 0
v -21 -20 0
v -27 -21 0
v -28 -21 0
v -28 -20 0
v -27 -20 0
v -28 -21 0
v -29 -21 0
v -29 -20 0
v -28 -20 0
v -6 -22 0
v -7 -22 0
v -7 -21 0
v -6 -21 0
v -7 -22 0
v -8 -22 0
v -8 -21 0
v -7 -21 0
v -13 -22 0
v -14 -22 0
v -14 -21 0
v -13 -21 0
v -14 -22 0
v -15 -22 0
v -15 -21 0
v -14 -21 0
v -20 -22 0
v -21 -22 0
v -21 -21 0
v -20 -21 0
v -21 -22 0
v -22 -22 0
v -22 -21 0
v -21 -21 0
v -27 -22 0
v -28 -22 0
v -28 -21 0
v -27 -21 0
v -28 -22 0
v -29 -22 0
v -29 -21 0
v -28 -21 0
v -6 -23 0
v -7 -23 0
v -7 -22 0
v -6 -22 0
v -7 -23 0
v -8 -23 0
v -8 -22 0
v -7 -22 0
v -13 -23 0
v -14 -23 0
v -14 -22 0
v -13 -22 0
v -14 -23 0
v -15 -23 0
v -15 -22 0
v -14 -22 0
v -20 -23 0
v -21 -23 0
v -21 -22 0
v -20 -22 0
v -21 -23 0
v -22 -23 0
v -22 -22 0
v -21 -22 0
v -27 -23 0
v -28 -23 0
v -28 -22 0
v -27 -22 0
v -28 -23 0
v -29 -23 0
v -29 -22 0
v -28 -22 0
v -6 -24 0
v -7 -24 0
v -7 -23 0
v -6 -23 0
v -7 -24 0
v -8 -24 0
v -8 -23 0
v -7 -23 0
v -13 -24 0
v -14 -24 0
v -14 -23 0
v -13 -23 0
v -14 -24 0
v -15 -24 0
v -15 -23 0
v -14 -23 0
v -20 -24 0
v -21 -24 0
v -21 -23 0
v -20 -23 0
v -21 -24 0
v -22 -24 0
v -22 -23 0
v -21 -23 0
v -27 -24 0
v -28 -24 0
v -28 -23 0
v -27 -23 0
v -28 -24 0
v -29 -24 0
v -29 -23 0
v -28 -23 0

# Texture cooridinates (Count = 4)
vt 0.375 0.875
vt 0.375 1
vt 0.25 1
vt 0.25 0.875

# Normal
vn 0 0 -1

# Mesh description
g lvl2_01_mesh_0005

# Faces
f 1/1/1 2/2/1 3/3/1 4/4/1
f 5/3/1 6/4/1 7/1/1 8/2/1
f 9/1/1 10/2/1 11/3/1 12/4/1
f 13/3/1 14/4/1 15/1/1 16/2/1
f 17/1/1 18/2/1 19/3/1 20/4/1
f 21/3/1 22/4/1 23/1/1 24/2/1
f 25/1/1 26/2/1 27/3/1 28/4/1
f 29/3/1 30/4/1 31/1/1 32/2/1
f 33/1/1 34/2/1 35/3/1 36/4/1
f 37/3/1 38/4/1 39/1/1 40/2/1
f 41/1/1 42/2/1 43/3/1 44/4/1
f 45/3/1 46/4/1 47/1/1 48/2/1
f 49/1/1 50/2/1 51/3/1 52/4/1
f 53/3/1 54/4/1 55/1/1 56/2/1
f 57/1/1 58/2/1 59/3/1 60/4/1
f 61/3/1 62/4/1 63/1/1 64/2/1
f 65/1/1 66/2/1 67/3/1 68/4/1
f 69/3/1 70/4/1 71/1/1 72/2/1
f 73/1/1 74/2/1 75/3/1 76/4/1
f 77/3/1 78/4/1 79/1/1 80/2/1
f 81/1/1 82/2/1 83/3/1 84/4/1
f 85/3/1 86/4/1 87/1/1 88/2/1
f 89/1/1 90/2/1 91/3/1 92/4/1
f 93/3/1 94/4/1 95/1/1 96/2/1
f 97/1/1 98/2/1 99/3/1 100/4/1
f 101/3/1 102/4/1 103/1/1 104/2/1
f 105/1/1 106/2/1 107/3/1 108/4/1
f 109/3/1 110/4/1 111/1/1 112/2/1
f 113/1/1 114/2/1 115/3/1 116/4/1
f 117/3/1 118/4/1 119/1/1 120/2/1
f 121/1/1 122/2/1 123/3/1 124/4/1
f 125/3/1 126/4/1 127/1/1 128/2/1
f 129/1/1 130/2/1 131/3/1 132/4/1
f 133/3/1 134/4/1 135/1/1 136/2/1
f 137/1/1 138/2/1 139/3/1 140/4/1
f 141/3/1 142/4/1 143/1/1 144/2/1
f 145/1/1 146/2/1 147/3/1 148/4/1
f 149/3/1 150/4/1 151/1/1 152/2/1
f 153/1/1 154/2/1 155/3/1 156/4/1
f 157/3/1 158/4/1 159/1/1 160/2/1
f 161/1/1 162/2/1 163/3/1 164/4/1
f 165/3/1 166/4/1 167/1/1 168/2/1
f 169/1/1 170/2/1 171/3/1 172/4/1
f 173/3/1 174/4/1 175/1/1 176/2/1
f 177/1/1 178/2/1 179/3/1 180/4/1
f 181/3/1 182/4/1 183/1/1 184/2/1
f 185/1/1 186/2/1 187/3/1 188/4/1
f 189/3/1 190/4/1 191/1/1 192/2/1
f 193/1/1 194/2/1 195/3/1 196/4/1
f 197/3/1 198/4/1 199/1/1 200/2/1
f 201/1/1 202/2/1 203/3/1 204/4/1
f 205/3/1 206/4/1 207/1/1 208/2/1
f 209/1/1 210/2/1 211/3/1 212/4/1
f 213/3/1 214/4/1 215/1/1 216/2/1
f 217/1/1 218/2/1 219/3/1 220/4/1
f 221/3/1 222/4/1 223/1/1 224/2/1
f 225/1/1 226/2/1 227/3/1 228/4/1
f 229/3/1 230/4/1 231/1/1 232/2/1
f 233/1/1 234/2/1 235/3/1 236/4/1
f 237/3/1 238/4/1 239/1/1 240/2/1
f 241/1/1 242/2/1 243/3/1 244/4/1
f 245/3/1 246/4/1 247/1/1 248/2/1
f 249/1/1 250/2/1 251/3/1 252/4/1
f 253/3/1 254/4/1 255/1/1 256/2/1
f 257/1/1 258/2/1 259/3/1 260/4/1
f 261/3/1 262/4/1 263/1/1 264/2/1
f 265/1/1 266/2/1 267/3/1 268/4/1
f 269/3/1 270/4/1 271/1/1 272/2/1
f 273/1/1 274/2/1 275/3/1 276/4/1
f 277/3/1 278/4/1 279/1/1 280/2/1
f 281/1/1 282/2/1 283/3/1 284/4/1
f 285/3/1 286/4/1 287/1/1 288/2/1
f 289/1/1 290/2/1 291/3/1 292/4/1
f 293/3/1 294/4/1 295/1/1 296/2/1
f 297/1/1 298/2/1 299/3/1 300/4/1
f 301/3/1 302/4/1 303/1/1 304/2/1
f 305/1/1 306/2/1 307/3/1 308/4/1
f 309/3/1 310/4/1 311/1/1 312/2/1
f 313/1/1 314/2/1 315/3/1 316/4/1
f 317/3/1 318/4/1 319/1/1 320/2/1
f 321/1/1 322/2/1 323/3/1 324/4/1
f 325/3/1 326/4/1 327/1/1 328/2/1
f 329/1/1 330/2/1 331/3/1 332/4/1
f 333/3/1 334/4/1 335/1/1 336/2/1
f 337/1/1 338/2/1 339/3/1 340/4/1
f 341/3/1 342/4/1 343/1/1 344/2/1
f 345/1/1 346/2/1 347/3/1 348/4/1
f 349/3/1 350/4/1 351/1/1 352/2/1
f 353/1/1 354/2/1 355/3/1 356/4/1
f 357/3/1 358/4/1 359/1/1 360/2/1
f 361/1/1 362/2/1 363/3/1 364/4/1
f 365/3/1 366/4/1 367/1/1 368/2/1
f 369/1/1 370/2/1 371/3/1 372/4/1
f 373/3/1 374/4/1 375/1/1 376/2/1
f 377/1/1 378/2/1 379/3/1 380/4/1
f 381/3/1 382/4/1 383/1/1 384/2/1
f 385/1/1 386/2/1 387/3/1 388/4/1
f 389/3/1 390/4/1 391/1/1 392/2/1
f 393/1/1 394/2/1 395/3/1 396/4/1
f 397/3/1 398/4/1 399/1/1 400/2/1
f 401/1/1 402/2/1 403/3/1 404/4/1
f 405/3/1 406/4/1 407/1/1 408/2/1
f 409/1/1 410/2/1 411/3/1 412/4/1
f 413/3/1 414/4/1 415/1/1 416/2/1
f 417/1/1 418/2/1 419/3/1 420/4/1
f 421/3/1 422/4/1 423/1/1 424/2/1
f 425/1/1 426/2/1 427/3/1 428/4/1
f 429/3/1 430/4/1 431/1/1 432/2/1
f 433/1/1 434/2/1 435/3/1 436/4/1
f 437/3/1 438/4/1 439/1/1 440/2/1
f 441/1/1 442/2/1 443/3/1 444/4/1
f 445/3/1 446/4/1 447/1/1 448/2/1
f 449/1/1 450/2/1 451/3/1 452/4/1
f 453/3/1 454/4/1 455/1/1 456/2/1
f 457/1/1 458/2/1 459/3/1 460/4/1
f 461/3/1 462/4/1 463/1/1 464/2/1
f 465/1/1 466/2/1 467/3/1 468/4/1
f 469/3/1 470/4/1 471/1/1 472/2/1
f 473/1/1 474/2/1 475/3/1 476/4/1
f 477/3/1 478/4/1 479/1/1 480/2/1
f 481/1/1 482/2/1 483/3/1 484/4/1
f 485/3/1 486/4/1 487/1/1 488/2/1
f 489/1/1 490/2/1 491/3/1 492/4/1
f 493/3/1 494/4/1 495/1/1 496/2/1
f 497/1/1 498/2/1 499/3/1 500/4/1
f 501/3/1 502/4/1 503/1/1 504/2/1
f 505/1/1 506/2/1 507/3/1 508/4/1
f 509/3/1 510/4/1 511/1/1 512/2/1
f 513/1/1 514/2/1 515/3/1 516/4/1
f 517/3/1 518/4/1 519/1/1 520/2/1
f 521/1/1 522/2/1 523/3/1 524/4/1
f 525/3/1 526/4/1 527/1/1 528/2/1
f 529/1/1 530/2/1 531/3/1 532/4/1
f 533/3/1 534/4/1 535/1/1 536/2/1
f 537/1/1 538/2/1 539/3/1 540/4/1
f 541/3/1 542/4/1 543/1/1 544/2/1
f 545/1/1 546/2/1 547/3/1 548/4/1
f 549/3/1 550/4/1 551/1/1 552/2/1
f 553/1/1 554/2/1 555/3/1 556/4/1
f 557/3/1 558/4/1 559/1/1 560/2/1
f 561/1/1 562/2/1 563/3/1 564/4/1
f 565/3/1 566/4/1 567/1/1 568/2/1
f 569/1/1 570/2/1 571/3/1 572/4/1
f 573/3/1 574/4/1 575/1/1 576/2/1
f 577/1/1 578/2/1 579/3/1 580/4/1
f 581/3/1 582/4/1 583/1/1 584/2/1
f 585/1/1 586/2/1 587/3/1 588/4/1
f 589/3/1 590/4/1 591/1/1 592/2/1
f 593/1/1 594/2/1 595/3/1 596/4/1
f 597/3/1 598/4/1 599/1/1 600/2/1
f 601/1/1 602/2/1 603/3/1 604/4/1
f 605/3/1 606/4/1 607/1/1 608/2/1
f 609/1/1 610/2/1 611/3/1 612/4/1
f 613/3/1 614/4/1 615/1/1 616/2/1
f 617/1/1 618/2/1 619/3/1 620/4/1
f 621/3/1 622/4/1 623/1/1 624/2/1
f 625/1/1 626/2/1 627/3/1 628/4/1
f 629/3/1 630/4/1 631/1/1 632/2/1
f 633/1/1 634/2/1 635/3/1 636/4/1
f 637/3/1 638/4/1 639/1/1 640/2/1
f 641/1/1 642/2/1 643/3/1 644/4/1
f 645/3/1 646/4/1 647/1/1 648/2/1
f 649/1/1 650/2/1 651/3/1 652/4/1
f 653/3/1 654/4/1 655/1/1 656/2/1
f 657/1/1 658/2/1 659/3/1 660/4/1
f 661/3/1 662/4/1 663/1/1 664/2/1
f 665/1/1 666/2/1 667/3/1 668/4/1
f 669/3/1 670/4/1 671/1/1 672/2/1
f 673/1/1 674/2/1 675/3/1 676/4/1
f 677/3/1 678/4/1 679/1/1 680/2/1
f 681/1/1 682/2/1 683/3/1 684/4/1
f 685/3/1 686/4/1 687/1/1 688/2/1
f 689/1/1 690/2/1 691/3/1 692/4/1
f 693/3/1 694/4/1 695/1/1 696/2/1
f 697/1/1 698/2/1 699/3/1 700/4/1
f 701/3/1 702/4/1 703/1/1 704/2/1
f 705/1/1 706/2/1 707/3/1 708/4/1
f 709/3/1 710/4/1 711/1/1 712/2/1
f 713/1/1 714/2/1 715/3/1 716/4/1
f 717/3/1 718/4/1 719/1/1 720/2/1
f 721/1/1 722/2/1 723/3/1 724/4/1
f 725/3/1 726/4/1 727/1/1 728/2/1
f 729/1/1 730/2/1 731/3/1 732/4/1
f 733/3/1 734/4/1 735/1/1 736/2/1

