# Tiled2Unity generated file. Do not modify by hand.
# Wavefront file for 'lvl0_01_mesh_0002.obj'

# Vertices (Count = 208)
v 0 -20 0
v -1 -20 0
v -1 -19 0
v 0 -19 0
v -24 -20 0
v -25 -20 0
v -25 -19 0
v -24 -19 0
v 0 -19 0
v -1 -19 0
v -1 -18 0
v 0 -18 0
v -24 -19 0
v -25 -19 0
v -25 -18 0
v -24 -18 0
v 0 -18 0
v -1 -18 0
v -1 -17 0
v 0 -17 0
v -5 -18 0
v -6 -18 0
v -6 -17 0
v -5 -17 0
v -24 -18 0
v -25 -18 0
v -25 -17 0
v -24 -17 0
v 0 -17 0
v -1 -17 0
v -1 -16 0
v 0 -16 0
v -19 -17 0
v -20 -17 0
v -20 -16 0
v -19 -16 0
v -24 -17 0
v -25 -17 0
v -25 -16 0
v -24 -16 0
v 0 -16 0
v -1 -16 0
v -1 -15 0
v 0 -15 0
v -24 -16 0
v -25 -16 0
v -25 -15 0
v -24 -15 0
v 0 -15 0
v -1 -15 0
v -1 -14 0
v 0 -14 0
v -24 -15 0
v -25 -15 0
v -25 -14 0
v -24 -14 0
v 0 -14 0
v -1 -14 0
v -1 -13 0
v 0 -13 0
v -24 -14 0
v -25 -14 0
v -25 -13 0
v -24 -13 0
v 0 -13 0
v -1 -13 0
v -1 -12 0
v 0 -12 0
v -11 -13 0
v -12 -13 0
v -12 -12 0
v -11 -12 0
v -24 -13 0
v -25 -13 0
v -25 -12 0
v -24 -12 0
v 0 -12 0
v -1 -12 0
v -1 -11 0
v 0 -11 0
v -10 -12 0
v -11 -12 0
v -11 -11 0
v -10 -11 0
v -24 -12 0
v -25 -12 0
v -25 -11 0
v -24 -11 0
v 0 -11 0
v -1 -11 0
v -1 -10 0
v 0 -10 0
v -3 -11 0
v -4 -11 0
v -4 -10 0
v -3 -10 0
v -7 -11 0
v -8 -11 0
v -8 -10 0
v -7 -10 0
v -24 -11 0
v -25 -11 0
v -25 -10 0
v -24 -10 0
v 0 -10 0
v -1 -10 0
v -1 -9 0
v 0 -9 0
v -24 -10 0
v -25 -10 0
v -25 -9 0
v -24 -9 0
v 0 -9 0
v -1 -9 0
v -1 -8 0
v 0 -8 0
v -21 -9 0
v -22 -9 0
v -22 -8 0
v -21 -8 0
v -24 -9 0
v -25 -9 0
v -25 -8 0
v -24 -8 0
v 0 -8 0
v -1 -8 0
v -1 -7 0
v 0 -7 0
v -3 -8 0
v -4 -8 0
v -4 -7 0
v -3 -7 0
v -20 -8 0
v -21 -8 0
v -21 -7 0
v -20 -7 0
v -24 -8 0
v -25 -8 0
v -25 -7 0
v -24 -7 0
v 0 -7 0
v -1 -7 0
v -1 -6 0
v 0 -6 0
v -24 -7 0
v -25 -7 0
v -25 -6 0
v -24 -6 0
v 0 -6 0
v -1 -6 0
v -1 -5 0
v 0 -5 0
v -9 -6 0
v -10 -6 0
v -10 -5 0
v -9 -5 0
v -24 -6 0
v -25 -6 0
v -25 -5 0
v -24 -5 0
v 0 -5 0
v -1 -5 0
v -1 -4 0
v 0 -4 0
v -24 -5 0
v -25 -5 0
v -25 -4 0
v -24 -4 0
v 0 -4 0
v -1 -4 0
v -1 -3 0
v 0 -3 0
v -24 -4 0
v -25 -4 0
v -25 -3 0
v -24 -3 0
v 0 -3 0
v -1 -3 0
v -1 -2 0
v 0 -2 0
v -24 -3 0
v -25 -3 0
v -25 -2 0
v -24 -2 0
v 0 -2 0
v -1 -2 0
v -1 -1 0
v 0 -1 0
v -4 -2 0
v -5 -2 0
v -5 -1 0
v -4 -1 0
v -21 -2 0
v -22 -2 0
v -22 -1 0
v -21 -1 0
v -24 -2 0
v -25 -2 0
v -25 -1 0
v -24 -1 0
v 0 -1 0
v -1 -1 0
v -1 0 0
v 0 0 0
v -24 -1 0
v -25 -1 0
v -25 0 0
v -24 0 0

# Texture cooridinates (Count = 8)
vt 0.75 0.625
vt 0.875 0.625
vt 0.875 0.75
vt 0.75 0.75
vt 0 0.875
vt 0.125 0.875
vt 0.125 1
vt 0 1

# Normal
vn 0 0 -1

# Mesh description
g lvl0_01_mesh_0002

# Faces
f 1/1/1 2/2/1 3/3/1 4/4/1
f 5/1/1 6/2/1 7/3/1 8/4/1
f 9/1/1 10/2/1 11/3/1 12/4/1
f 13/1/1 14/2/1 15/3/1 16/4/1
f 17/1/1 18/2/1 19/3/1 20/4/1
f 21/5/1 22/6/1 23/7/1 24/8/1
f 25/1/1 26/2/1 27/3/1 28/4/1
f 29/1/1 30/2/1 31/3/1 32/4/1
f 33/5/1 34/6/1 35/7/1 36/8/1
f 37/1/1 38/2/1 39/3/1 40/4/1
f 41/1/1 42/2/1 43/3/1 44/4/1
f 45/1/1 46/2/1 47/3/1 48/4/1
f 49/1/1 50/2/1 51/3/1 52/4/1
f 53/1/1 54/2/1 55/3/1 56/4/1
f 57/1/1 58/2/1 59/3/1 60/4/1
f 61/1/1 62/2/1 63/3/1 64/4/1
f 65/1/1 66/2/1 67/3/1 68/4/1
f 69/5/1 70/6/1 71/7/1 72/8/1
f 73/1/1 74/2/1 75/3/1 76/4/1
f 77/1/1 78/2/1 79/3/1 80/4/1
f 81/5/1 82/6/1 83/7/1 84/8/1
f 85/1/1 86/2/1 87/3/1 88/4/1
f 89/1/1 90/2/1 91/3/1 92/4/1
f 93/5/1 94/6/1 95/7/1 96/8/1
f 97/5/1 98/6/1 99/7/1 100/8/1
f 101/1/1 102/2/1 103/3/1 104/4/1
f 105/1/1 106/2/1 107/3/1 108/4/1
f 109/1/1 110/2/1 111/3/1 112/4/1
f 113/1/1 114/2/1 115/3/1 116/4/1
f 117/5/1 118/6/1 119/7/1 120/8/1
f 121/1/1 122/2/1 123/3/1 124/4/1
f 125/1/1 126/2/1 127/3/1 128/4/1
f 129/5/1 130/6/1 131/7/1 132/8/1
f 133/5/1 134/6/1 135/7/1 136/8/1
f 137/1/1 138/2/1 139/3/1 140/4/1
f 141/1/1 142/2/1 143/3/1 144/4/1
f 145/1/1 146/2/1 147/3/1 148/4/1
f 149/1/1 150/2/1 151/3/1 152/4/1
f 153/5/1 154/6/1 155/7/1 156/8/1
f 157/1/1 158/2/1 159/3/1 160/4/1
f 161/1/1 162/2/1 163/3/1 164/4/1
f 165/1/1 166/2/1 167/3/1 168/4/1
f 169/1/1 170/2/1 171/3/1 172/4/1
f 173/1/1 174/2/1 175/3/1 176/4/1
f 177/1/1 178/2/1 179/3/1 180/4/1
f 181/1/1 182/2/1 183/3/1 184/4/1
f 185/1/1 186/2/1 187/3/1 188/4/1
f 189/5/1 190/6/1 191/7/1 192/8/1
f 193/5/1 194/6/1 195/7/1 196/8/1
f 197/1/1 198/2/1 199/3/1 200/4/1
f 201/1/1 202/2/1 203/3/1 204/4/1
f 205/1/1 206/2/1 207/3/1 208/4/1

