# Tiled2Unity generated file. Do not modify by hand.
# Wavefront file for 'lvl0_01_mesh_0005.obj'

# Vertices (Count = 60)
v -11 -18 0
v -12 -18 0
v -12 -17 0
v -11 -17 0
v -12 -18 0
v -13 -18 0
v -13 -17 0
v -12 -17 0
v -13 -18 0
v -14 -18 0
v -14 -17 0
v -13 -17 0
v -14 -18 0
v -15 -18 0
v -15 -17 0
v -14 -17 0
v -15 -18 0
v -16 -18 0
v -16 -17 0
v -15 -17 0
v -16 -18 0
v -17 -18 0
v -17 -17 0
v -16 -17 0
v -17 -18 0
v -18 -18 0
v -18 -17 0
v -17 -17 0
v -10 -15 0
v -11 -15 0
v -11 -14 0
v -10 -14 0
v -11 -15 0
v -12 -15 0
v -12 -14 0
v -11 -14 0
v -9 -8 0
v -10 -8 0
v -10 -7 0
v -9 -7 0
v -3 -5 0
v -4 -5 0
v -4 -4 0
v -3 -4 0
v -4 -5 0
v -5 -5 0
v -5 -4 0
v -4 -4 0
v -5 -5 0
v -6 -5 0
v -6 -4 0
v -5 -4 0
v -12 -5 0
v -13 -5 0
v -13 -4 0
v -12 -4 0
v -13 -5 0
v -14 -5 0
v -14 -4 0
v -13 -4 0

# Texture cooridinates (Count = 6)
vt 0.25 0.5
vt 0.375 0.5
vt 0.375 0.625
vt 0.25 0.625
vt 0.125 0.5
vt 0.125 0.625

# Normal
vn 0 0 -1

# Mesh description
g lvl0_01_mesh_0005

# Faces
f 1/1/1 2/2/1 3/3/1 4/4/1
f 5/1/1 6/2/1 7/3/1 8/4/1
f 9/1/1 10/2/1 11/3/1 12/4/1
f 13/1/1 14/2/1 15/3/1 16/4/1
f 17/5/1 18/1/1 19/4/1 20/6/1
f 21/5/1 22/1/1 23/4/1 24/6/1
f 25/5/1 26/1/1 27/4/1 28/6/1
f 29/5/1 30/1/1 31/4/1 32/6/1
f 33/1/1 34/2/1 35/3/1 36/4/1
f 37/5/1 38/1/1 39/4/1 40/6/1
f 41/5/1 42/1/1 43/4/1 44/6/1
f 45/1/1 46/2/1 47/3/1 48/4/1
f 49/5/1 50/1/1 51/4/1 52/6/1
f 53/5/1 54/1/1 55/4/1 56/6/1
f 57/1/1 58/2/1 59/3/1 60/4/1

