# Tiled2Unity generated file. Do not modify by hand.
# Wavefront file for 'lvl0_05_mesh_0007.obj'

# Vertices (Count = 36)
v -6 -16 0
v -7 -16 0
v -7 -15 0
v -6 -15 0
v -7 -16 0
v -8 -16 0
v -8 -15 0
v -7 -15 0
v -8 -16 0
v -9 -16 0
v -9 -15 0
v -8 -15 0
v -9 -16 0
v -10 -16 0
v -10 -15 0
v -9 -15 0
v -13 -16 0
v -14 -16 0
v -14 -15 0
v -13 -15 0
v -14 -16 0
v -15 -16 0
v -15 -15 0
v -14 -15 0
v -15 -16 0
v -16 -16 0
v -16 -15 0
v -15 -15 0
v -16 -16 0
v -17 -16 0
v -17 -15 0
v -16 -15 0
v -17 -16 0
v -18 -16 0
v -18 -15 0
v -17 -15 0

# Texture cooridinates (Count = 6)
vt 0.25 0.5
vt 0.375 0.5
vt 0.375 0.625
vt 0.25 0.625
vt 0.125 0.5
vt 0.125 0.625

# Normal
vn 0 0 -1

# Mesh description
g lvl0_05_mesh_0007

# Faces
f 1/1/1 2/2/1 3/3/1 4/4/1
f 5/5/1 6/1/1 7/4/1 8/6/1
f 9/5/1 10/1/1 11/4/1 12/6/1
f 13/5/1 14/1/1 15/4/1 16/6/1
f 17/5/1 18/1/1 19/4/1 20/6/1
f 21/5/1 22/1/1 23/4/1 24/6/1
f 25/5/1 26/1/1 27/4/1 28/6/1
f 29/1/1 30/2/1 31/3/1 32/4/1
f 33/1/1 34/2/1 35/3/1 36/4/1

