# Tiled2Unity generated file. Do not modify by hand.
# Wavefront file for 'TestMap01_mesh_0003.obj'

# Vertices (Count = 332)
v 0 -100 0
v -1 -100 0
v -1 -99 0
v 0 -99 0
v -1 -100 0
v -2 -100 0
v -2 -99 0
v -1 -99 0
v -2 -100 0
v -3 -100 0
v -3 -99 0
v -2 -99 0
v -3 -100 0
v -4 -100 0
v -4 -99 0
v -3 -99 0
v -4 -100 0
v -5 -100 0
v -5 -99 0
v -4 -99 0
v -5 -100 0
v -6 -100 0
v -6 -99 0
v -5 -99 0
v -6 -100 0
v -7 -100 0
v -7 -99 0
v -6 -99 0
v -7 -100 0
v -8 -100 0
v -8 -99 0
v -7 -99 0
v -8 -100 0
v -9 -100 0
v -9 -99 0
v -8 -99 0
v -9 -100 0
v -10 -100 0
v -10 -99 0
v -9 -99 0
v -10 -100 0
v -11 -100 0
v -11 -99 0
v -10 -99 0
v -11 -100 0
v -12 -100 0
v -12 -99 0
v -11 -99 0
v -12 -100 0
v -13 -100 0
v -13 -99 0
v -12 -99 0
v -13 -100 0
v -14 -100 0
v -14 -99 0
v -13 -99 0
v -14 -100 0
v -15 -100 0
v -15 -99 0
v -14 -99 0
v -15 -100 0
v -16 -100 0
v -16 -99 0
v -15 -99 0
v -16 -100 0
v -17 -100 0
v -17 -99 0
v -16 -99 0
v -17 -100 0
v -18 -100 0
v -18 -99 0
v -17 -99 0
v -18 -100 0
v -19 -100 0
v -19 -99 0
v -18 -99 0
v -19 -100 0
v -20 -100 0
v -20 -99 0
v -19 -99 0
v -20 -100 0
v -21 -100 0
v -21 -99 0
v -20 -99 0
v -21 -100 0
v -22 -100 0
v -22 -99 0
v -21 -99 0
v -22 -100 0
v -23 -100 0
v -23 -99 0
v -22 -99 0
v -23 -100 0
v -24 -100 0
v -24 -99 0
v -23 -99 0
v -1 -99 0
v -2 -99 0
v -2 -98 0
v -1 -98 0
v -21 -99 0
v -22 -99 0
v -22 -98 0
v -21 -98 0
v -1 -98 0
v -2 -98 0
v -2 -97 0
v -1 -97 0
v -21 -98 0
v -22 -98 0
v -22 -97 0
v -21 -97 0
v -1 -97 0
v -2 -97 0
v -2 -96 0
v -1 -96 0
v -21 -97 0
v -22 -97 0
v -22 -96 0
v -21 -96 0
v -1 -96 0
v -2 -96 0
v -2 -95 0
v -1 -95 0
v -17 -96 0
v -18 -96 0
v -18 -95 0
v -17 -95 0
v -18 -96 0
v -19 -96 0
v -19 -95 0
v -18 -95 0
v -19 -96 0
v -20 -96 0
v -20 -95 0
v -19 -95 0
v -21 -96 0
v -22 -96 0
v -22 -95 0
v -21 -95 0
v -1 -95 0
v -2 -95 0
v -2 -94 0
v -1 -94 0
v -21 -95 0
v -22 -95 0
v -22 -94 0
v -21 -94 0
v -1 -94 0
v -2 -94 0
v -2 -93 0
v -1 -93 0
v -21 -94 0
v -22 -94 0
v -22 -93 0
v -21 -93 0
v -1 -93 0
v -2 -93 0
v -2 -92 0
v -1 -92 0
v -4 -93 0
v -5 -93 0
v -5 -92 0
v -4 -92 0
v -5 -93 0
v -6 -93 0
v -6 -92 0
v -5 -92 0
v -6 -93 0
v -7 -93 0
v -7 -92 0
v -6 -92 0
v -13 -93 0
v -14 -93 0
v -14 -92 0
v -13 -92 0
v -14 -93 0
v -15 -93 0
v -15 -92 0
v -14 -92 0
v -15 -93 0
v -16 -93 0
v -16 -92 0
v -15 -92 0
v -21 -93 0
v -22 -93 0
v -22 -92 0
v -21 -92 0
v -1 -92 0
v -2 -92 0
v -2 -91 0
v -1 -91 0
v -21 -92 0
v -22 -92 0
v -22 -91 0
v -21 -91 0
v -1 -91 0
v -2 -91 0
v -2 -90 0
v -1 -90 0
v -21 -91 0
v -22 -91 0
v -22 -90 0
v -21 -90 0
v -1 -90 0
v -2 -90 0
v -2 -89 0
v -1 -89 0
v -21 -90 0
v -22 -90 0
v -22 -89 0
v -21 -89 0
v -1 -89 0
v -2 -89 0
v -2 -88 0
v -1 -88 0
v -21 -89 0
v -22 -89 0
v -22 -88 0
v -21 -88 0
v -1 -88 0
v -2 -88 0
v -2 -87 0
v -1 -87 0
v -5 -88 0
v -6 -88 0
v -6 -87 0
v -5 -87 0
v -6 -88 0
v -7 -88 0
v -7 -87 0
v -6 -87 0
v -8 -88 0
v -9 -88 0
v -9 -87 0
v -8 -87 0
v -14 -88 0
v -15 -88 0
v -15 -87 0
v -14 -87 0
v -15 -88 0
v -16 -88 0
v -16 -87 0
v -15 -87 0
v -16 -88 0
v -17 -88 0
v -17 -87 0
v -16 -87 0
v -17 -88 0
v -18 -88 0
v -18 -87 0
v -17 -87 0
v -21 -88 0
v -22 -88 0
v -22 -87 0
v -21 -87 0
v -1 -87 0
v -2 -87 0
v -2 -86 0
v -1 -86 0
v -15 -87 0
v -16 -87 0
v -16 -86 0
v -15 -86 0
v -16 -87 0
v -17 -87 0
v -17 -86 0
v -16 -86 0
v -21 -87 0
v -22 -87 0
v -22 -86 0
v -21 -86 0
v -1 -86 0
v -2 -86 0
v -2 -85 0
v -1 -85 0
v -21 -86 0
v -22 -86 0
v -22 -85 0
v -21 -85 0
v -1 -85 0
v -2 -85 0
v -2 -84 0
v -1 -84 0
v -14 -85 0
v -15 -85 0
v -15 -84 0
v -14 -84 0
v -15 -85 0
v -16 -85 0
v -16 -84 0
v -15 -84 0
v -16 -85 0
v -17 -85 0
v -17 -84 0
v -16 -84 0
v -17 -85 0
v -18 -85 0
v -18 -84 0
v -17 -84 0
v -21 -85 0
v -22 -85 0
v -22 -84 0
v -21 -84 0
v -1 -84 0
v -2 -84 0
v -2 -83 0
v -1 -83 0
v -14 -84 0
v -15 -84 0
v -15 -83 0
v -14 -83 0
v -15 -84 0
v -16 -84 0
v -16 -83 0
v -15 -83 0
v -16 -84 0
v -17 -84 0
v -17 -83 0
v -16 -83 0
v -21 -84 0
v -22 -84 0
v -22 -83 0
v -21 -83 0
v -1 -83 0
v -2 -83 0
v -2 -82 0
v -1 -82 0
v -21 -83 0
v -22 -83 0
v -22 -82 0
v -21 -82 0

# Texture cooridinates (Count = 30)
vt 0.5 0.375
vt 0.625 0.375
vt 0.625 0.5
vt 0.5 0.5
vt 0.75 0.625
vt 0.875 0.625
vt 0.875 0.75
vt 0.75 0.75
vt 0.375 0.875
vt 0.5 0.875
vt 0.5 1
vt 0.375 1
vt 0.625 0.875
vt 0.625 1
vt 0.75 0.875
vt 0.75 1
vt 0 0.75
vt 0.125 0.75
vt 0.125 0.875
vt 0 0.875
vt 0.25 0.75
vt 0.25 0.875
vt 0.375 0.75
vt 0.375 0.5
vt 0.5 0.625
vt 0.375 0.625
vt 0.25 0.5
vt 0.25 0.625
vt 0.125 0.5
vt 0.125 0.625

# Normal
vn 0 0 -1

# Mesh description
g TestMap01_mesh_0003

# Faces
f 1/1/1 2/2/1 3/3/1 4/4/1
f 5/1/1 6/2/1 7/3/1 8/4/1
f 9/1/1 10/2/1 11/3/1 12/4/1
f 13/1/1 14/2/1 15/3/1 16/4/1
f 17/1/1 18/2/1 19/3/1 20/4/1
f 21/1/1 22/2/1 23/3/1 24/4/1
f 25/1/1 26/2/1 27/3/1 28/4/1
f 29/1/1 30/2/1 31/3/1 32/4/1
f 33/1/1 34/2/1 35/3/1 36/4/1
f 37/1/1 38/2/1 39/3/1 40/4/1
f 41/1/1 42/2/1 43/3/1 44/4/1
f 45/1/1 46/2/1 47/3/1 48/4/1
f 49/1/1 50/2/1 51/3/1 52/4/1
f 53/1/1 54/2/1 55/3/1 56/4/1
f 57/1/1 58/2/1 59/3/1 60/4/1
f 61/1/1 62/2/1 63/3/1 64/4/1
f 65/1/1 66/2/1 67/3/1 68/4/1
f 69/1/1 70/2/1 71/3/1 72/4/1
f 73/1/1 74/2/1 75/3/1 76/4/1
f 77/1/1 78/2/1 79/3/1 80/4/1
f 81/1/1 82/2/1 83/3/1 84/4/1
f 85/1/1 86/2/1 87/3/1 88/4/1
f 89/1/1 90/2/1 91/3/1 92/4/1
f 93/1/1 94/2/1 95/3/1 96/4/1
f 97/5/1 98/6/1 99/7/1 100/8/1
f 101/5/1 102/6/1 103/7/1 104/8/1
f 105/5/1 106/6/1 107/7/1 108/8/1
f 109/5/1 110/6/1 111/7/1 112/8/1
f 113/5/1 114/6/1 115/7/1 116/8/1
f 117/5/1 118/6/1 119/7/1 120/8/1
f 121/5/1 122/6/1 123/7/1 124/8/1
f 125/9/1 126/10/1 127/11/1 128/12/1
f 129/10/1 130/13/1 131/14/1 132/11/1
f 133/13/1 134/15/1 135/16/1 136/14/1
f 137/5/1 138/6/1 139/7/1 140/8/1
f 141/5/1 142/6/1 143/7/1 144/8/1
f 145/5/1 146/6/1 147/7/1 148/8/1
f 149/5/1 150/6/1 151/7/1 152/8/1
f 153/5/1 154/6/1 155/7/1 156/8/1
f 157/5/1 158/6/1 159/7/1 160/8/1
f 161/9/1 162/10/1 163/11/1 164/12/1
f 165/10/1 166/13/1 167/14/1 168/11/1
f 169/13/1 170/15/1 171/16/1 172/14/1
f 173/17/1 174/18/1 175/19/1 176/20/1
f 177/18/1 178/21/1 179/22/1 180/19/1
f 181/21/1 182/23/1 183/9/1 184/22/1
f 185/5/1 186/6/1 187/7/1 188/8/1
f 189/5/1 190/6/1 191/7/1 192/8/1
f 193/5/1 194/6/1 195/7/1 196/8/1
f 197/5/1 198/6/1 199/7/1 200/8/1
f 201/5/1 202/6/1 203/7/1 204/8/1
f 205/5/1 206/6/1 207/7/1 208/8/1
f 209/5/1 210/6/1 211/7/1 212/8/1
f 213/5/1 214/6/1 215/7/1 216/8/1
f 217/5/1 218/6/1 219/7/1 220/8/1
f 221/5/1 222/6/1 223/7/1 224/8/1
f 225/24/1 226/4/1 227/25/1 228/26/1
f 229/24/1 230/4/1 231/25/1 232/26/1
f 233/24/1 234/4/1 235/25/1 236/26/1
f 237/9/1 238/10/1 239/11/1 240/12/1
f 241/10/1 242/13/1 243/14/1 244/11/1
f 245/10/1 246/13/1 247/14/1 248/11/1
f 249/13/1 250/15/1 251/16/1 252/14/1
f 253/5/1 254/6/1 255/7/1 256/8/1
f 257/5/1 258/6/1 259/7/1 260/8/1
f 261/27/1 262/24/1 263/26/1 264/28/1
f 265/27/1 266/24/1 267/26/1 268/28/1
f 269/5/1 270/6/1 271/7/1 272/8/1
f 273/5/1 274/6/1 275/7/1 276/8/1
f 277/5/1 278/6/1 279/7/1 280/8/1
f 281/5/1 282/6/1 283/7/1 284/8/1
f 285/1/1 286/2/1 287/3/1 288/4/1
f 289/1/1 290/2/1 291/3/1 292/4/1
f 293/1/1 294/2/1 295/3/1 296/4/1
f 297/1/1 298/2/1 299/3/1 300/4/1
f 301/5/1 302/6/1 303/7/1 304/8/1
f 305/5/1 306/6/1 307/7/1 308/8/1
f 309/29/1 310/27/1 311/28/1 312/30/1
f 313/29/1 314/27/1 315/28/1 316/30/1
f 317/29/1 318/27/1 319/28/1 320/30/1
f 321/5/1 322/6/1 323/7/1 324/8/1
f 325/5/1 326/6/1 327/7/1 328/8/1
f 329/5/1 330/6/1 331/7/1 332/8/1

