# Tiled2Unity generated file. Do not modify by hand.
# Wavefront file for 'lvl1_06_mesh_0005.obj'

# Vertices (Count = 196)
v -6 -18 0
v -7 -18 0
v -7 -17 0
v -6 -17 0
v -7 -18 0
v -8 -18 0
v -8 -17 0
v -7 -17 0
v -8 -18 0
v -9 -18 0
v -9 -17 0
v -8 -17 0
v -9 -18 0
v -10 -18 0
v -10 -17 0
v -9 -17 0
v -10 -18 0
v -11 -18 0
v -11 -17 0
v -10 -17 0
v -11 -18 0
v -12 -18 0
v -12 -17 0
v -11 -17 0
v -12 -18 0
v -13 -18 0
v -13 -17 0
v -12 -17 0
v -13 -18 0
v -14 -18 0
v -14 -17 0
v -13 -17 0
v -14 -18 0
v -15 -18 0
v -15 -17 0
v -14 -17 0
v -15 -18 0
v -16 -18 0
v -16 -17 0
v -15 -17 0
v -16 -18 0
v -17 -18 0
v -17 -17 0
v -16 -17 0
v -17 -18 0
v -18 -18 0
v -18 -17 0
v -17 -17 0
v -20 -14 0
v -21 -14 0
v -21 -13 0
v -20 -13 0
v -21 -14 0
v -22 -14 0
v -22 -13 0
v -21 -13 0
v -15 -13 0
v -16 -13 0
v -16 -12 0
v -15 -12 0
v -16 -13 0
v -17 -13 0
v -17 -12 0
v -16 -12 0
v -20 -13 0
v -21 -13 0
v -21 -12 0
v -20 -12 0
v -21 -13 0
v -22 -13 0
v -22 -12 0
v -21 -12 0
v -3 -12 0
v -4 -12 0
v -4 -11 0
v -3 -11 0
v -4 -12 0
v -5 -12 0
v -5 -11 0
v -4 -11 0
v -15 -12 0
v -16 -12 0
v -16 -11 0
v -15 -11 0
v -16 -12 0
v -17 -12 0
v -17 -11 0
v -16 -11 0
v -20 -12 0
v -21 -12 0
v -21 -11 0
v -20 -11 0
v -21 -12 0
v -22 -12 0
v -22 -11 0
v -21 -11 0
v -2 -11 0
v -3 -11 0
v -3 -10 0
v -2 -10 0
v -3 -11 0
v -4 -11 0
v -4 -10 0
v -3 -10 0
v -9 -11 0
v -10 -11 0
v -10 -10 0
v -9 -10 0
v -13 -11 0
v -14 -11 0
v -14 -10 0
v -13 -10 0
v -14 -11 0
v -15 -11 0
v -15 -10 0
v -14 -10 0
v -21 -11 0
v -22 -11 0
v -22 -10 0
v -21 -10 0
v -10 -9 0
v -11 -9 0
v -11 -8 0
v -10 -8 0
v -11 -9 0
v -12 -9 0
v -12 -8 0
v -11 -8 0
v -10 -8 0
v -11 -8 0
v -11 -7 0
v -10 -7 0
v -11 -8 0
v -12 -8 0
v -12 -7 0
v -11 -7 0
v -10 -7 0
v -11 -7 0
v -11 -6 0
v -10 -6 0
v -11 -7 0
v -12 -7 0
v -12 -6 0
v -11 -6 0
v -11 -6 0
v -12 -6 0
v -12 -5 0
v -11 -5 0
v -7 -3 0
v -8 -3 0
v -8 -2 0
v -7 -2 0
v -8 -3 0
v -9 -3 0
v -9 -2 0
v -8 -2 0
v -9 -3 0
v -10 -3 0
v -10 -2 0
v -9 -2 0
v -10 -3 0
v -11 -3 0
v -11 -2 0
v -10 -2 0
v -11 -3 0
v -12 -3 0
v -12 -2 0
v -11 -2 0
v -13 -3 0
v -14 -3 0
v -14 -2 0
v -13 -2 0
v -14 -3 0
v -15 -3 0
v -15 -2 0
v -14 -2 0
v -15 -3 0
v -16 -3 0
v -16 -2 0
v -15 -2 0
v -16 -3 0
v -17 -3 0
v -17 -2 0
v -16 -2 0
v -17 -3 0
v -18 -3 0
v -18 -2 0
v -17 -2 0
v -18 -3 0
v -19 -3 0
v -19 -2 0
v -18 -2 0
v -19 -3 0
v -20 -3 0
v -20 -2 0
v -19 -2 0

# Texture cooridinates (Count = 6)
vt 0.25 0.5
vt 0.375 0.5
vt 0.375 0.625
vt 0.25 0.625
vt 0.125 0.5
vt 0.125 0.625

# Normal
vn 0 0 -1

# Mesh description
g lvl1_06_mesh_0005

# Faces
f 1/1/1 2/2/1 3/3/1 4/4/1
f 5/1/1 6/2/1 7/3/1 8/4/1
f 9/1/1 10/2/1 11/3/1 12/4/1
f 13/1/1 14/2/1 15/3/1 16/4/1
f 17/1/1 18/2/1 19/3/1 20/4/1
f 21/1/1 22/2/1 23/3/1 24/4/1
f 25/1/1 26/2/1 27/3/1 28/4/1
f 29/1/1 30/2/1 31/3/1 32/4/1
f 33/5/1 34/1/1 35/4/1 36/6/1
f 37/5/1 38/1/1 39/4/1 40/6/1
f 41/5/1 42/1/1 43/4/1 44/6/1
f 45/5/1 46/1/1 47/4/1 48/6/1
f 49/6/1 50/5/1 51/1/1 52/4/1
f 53/1/1 54/4/1 55/6/1 56/5/1
f 57/6/1 58/5/1 59/1/1 60/4/1
f 61/1/1 62/4/1 63/6/1 64/5/1
f 65/6/1 66/5/1 67/1/1 68/4/1
f 69/1/1 70/4/1 71/6/1 72/5/1
f 73/6/1 74/5/1 75/1/1 76/4/1
f 77/1/1 78/4/1 79/6/1 80/5/1
f 81/6/1 82/5/1 83/1/1 84/4/1
f 85/1/1 86/4/1 87/6/1 88/5/1
f 89/6/1 90/5/1 91/1/1 92/4/1
f 93/1/1 94/4/1 95/6/1 96/5/1
f 97/5/1 98/1/1 99/4/1 100/6/1
f 101/5/1 102/1/1 103/4/1 104/6/1
f 105/5/1 106/1/1 107/4/1 108/6/1
f 109/5/1 110/1/1 111/4/1 112/6/1
f 113/5/1 114/1/1 115/4/1 116/6/1
f 117/5/1 118/1/1 119/4/1 120/6/1
f 121/6/1 122/5/1 123/1/1 124/4/1
f 125/1/1 126/4/1 127/6/1 128/5/1
f 129/6/1 130/5/1 131/1/1 132/4/1
f 133/1/1 134/4/1 135/6/1 136/5/1
f 137/6/1 138/5/1 139/1/1 140/4/1
f 141/1/1 142/4/1 143/6/1 144/5/1
f 145/5/1 146/1/1 147/4/1 148/6/1
f 149/1/1 150/2/1 151/3/1 152/4/1
f 153/1/1 154/2/1 155/3/1 156/4/1
f 157/1/1 158/2/1 159/3/1 160/4/1
f 161/1/1 162/2/1 163/3/1 164/4/1
f 165/1/1 166/2/1 167/3/1 168/4/1
f 169/5/1 170/1/1 171/4/1 172/6/1
f 173/5/1 174/1/1 175/4/1 176/6/1
f 177/5/1 178/1/1 179/4/1 180/6/1
f 181/1/1 182/2/1 183/3/1 184/4/1
f 185/1/1 186/2/1 187/3/1 188/4/1
f 189/1/1 190/2/1 191/3/1 192/4/1
f 193/1/1 194/2/1 195/3/1 196/4/1

