# Tiled2Unity generated file. Do not modify by hand.
# Wavefront file for 'lvl2_00_mesh_0003.obj'

# Vertices (Count = 500)
v -2 -4 0
v -3 -4 0
v -3 -3 0
v -2 -3 0
v -3 -4 0
v -4 -4 0
v -4 -3 0
v -3 -3 0
v -4 -4 0
v -5 -4 0
v -5 -3 0
v -4 -3 0
v -5 -4 0
v -6 -4 0
v -6 -3 0
v -5 -3 0
v -6 -4 0
v -7 -4 0
v -7 -3 0
v -6 -3 0
v -7 -4 0
v -8 -4 0
v -8 -3 0
v -7 -3 0
v -8 -4 0
v -9 -4 0
v -9 -3 0
v -8 -3 0
v -9 -4 0
v -10 -4 0
v -10 -3 0
v -9 -3 0
v -10 -4 0
v -11 -4 0
v -11 -3 0
v -10 -3 0
v -11 -4 0
v -12 -4 0
v -12 -3 0
v -11 -3 0
v -12 -4 0
v -13 -4 0
v -13 -3 0
v -12 -3 0
v -13 -4 0
v -14 -4 0
v -14 -3 0
v -13 -3 0
v -14 -4 0
v -15 -4 0
v -15 -3 0
v -14 -3 0
v -15 -4 0
v -16 -4 0
v -16 -3 0
v -15 -3 0
v -16 -4 0
v -17 -4 0
v -17 -3 0
v -16 -3 0
v -17 -4 0
v -18 -4 0
v -18 -3 0
v -17 -3 0
v -18 -4 0
v -19 -4 0
v -19 -3 0
v -18 -3 0
v -19 -4 0
v -20 -4 0
v -20 -3 0
v -19 -3 0
v -20 -4 0
v -21 -4 0
v -21 -3 0
v -20 -3 0
v -21 -4 0
v -22 -4 0
v -22 -3 0
v -21 -3 0
v -22 -4 0
v -23 -4 0
v -23 -3 0
v -22 -3 0
v -23 -4 0
v -24 -4 0
v -24 -3 0
v -23 -3 0
v -24 -4 0
v -25 -4 0
v -25 -3 0
v -24 -3 0
v -25 -4 0
v -26 -4 0
v -26 -3 0
v -25 -3 0
v -26 -4 0
v -27 -4 0
v -27 -3 0
v -26 -3 0
v -27 -4 0
v -28 -4 0
v -28 -3 0
v -27 -3 0
v -28 -4 0
v -29 -4 0
v -29 -3 0
v -28 -3 0
v -29 -4 0
v -30 -4 0
v -30 -3 0
v -29 -3 0
v -30 -4 0
v -31 -4 0
v -31 -3 0
v -30 -3 0
v -31 -4 0
v -32 -4 0
v -32 -3 0
v -31 -3 0
v -32 -4 0
v -33 -4 0
v -33 -3 0
v -32 -3 0
v -2 -8 0
v -3 -8 0
v -3 -7 0
v -2 -7 0
v -3 -8 0
v -4 -8 0
v -4 -7 0
v -3 -7 0
v -4 -8 0
v -5 -8 0
v -5 -7 0
v -4 -7 0
v -5 -8 0
v -6 -8 0
v -6 -7 0
v -5 -7 0
v -6 -8 0
v -7 -8 0
v -7 -7 0
v -6 -7 0
v -7 -8 0
v -8 -8 0
v -8 -7 0
v -7 -7 0
v -8 -8 0
v -9 -8 0
v -9 -7 0
v -8 -7 0
v -9 -8 0
v -10 -8 0
v -10 -7 0
v -9 -7 0
v -15 -8 0
v -16 -8 0
v -16 -7 0
v -15 -7 0
v -16 -8 0
v -17 -8 0
v -17 -7 0
v -16 -7 0
v -17 -8 0
v -18 -8 0
v -18 -7 0
v -17 -7 0
v -18 -8 0
v -19 -8 0
v -19 -7 0
v -18 -7 0
v -19 -8 0
v -20 -8 0
v -20 -7 0
v -19 -7 0
v -25 -8 0
v -26 -8 0
v -26 -7 0
v -25 -7 0
v -26 -8 0
v -27 -8 0
v -27 -7 0
v -26 -7 0
v -27 -8 0
v -28 -8 0
v -28 -7 0
v -27 -7 0
v -28 -8 0
v -29 -8 0
v -29 -7 0
v -28 -7 0
v -29 -8 0
v -30 -8 0
v -30 -7 0
v -29 -7 0
v -30 -8 0
v -31 -8 0
v -31 -7 0
v -30 -7 0
v -31 -8 0
v -32 -8 0
v -32 -7 0
v -31 -7 0
v -32 -8 0
v -33 -8 0
v -33 -7 0
v -32 -7 0
v -2 -13 0
v -3 -13 0
v -3 -12 0
v -2 -12 0
v -3 -13 0
v -4 -13 0
v -4 -12 0
v -3 -12 0
v -4 -13 0
v -5 -13 0
v -5 -12 0
v -4 -12 0
v -5 -13 0
v -6 -13 0
v -6 -12 0
v -5 -12 0
v -6 -13 0
v -7 -13 0
v -7 -12 0
v -6 -12 0
v -7 -13 0
v -8 -13 0
v -8 -12 0
v -7 -12 0
v -8 -13 0
v -9 -13 0
v -9 -12 0
v -8 -12 0
v -9 -13 0
v -10 -13 0
v -10 -12 0
v -9 -12 0
v -15 -13 0
v -16 -13 0
v -16 -12 0
v -15 -12 0
v -16 -13 0
v -17 -13 0
v -17 -12 0
v -16 -12 0
v -17 -13 0
v -18 -13 0
v -18 -12 0
v -17 -12 0
v -18 -13 0
v -19 -13 0
v -19 -12 0
v -18 -12 0
v -19 -13 0
v -20 -13 0
v -20 -12 0
v -19 -12 0
v -25 -13 0
v -26 -13 0
v -26 -12 0
v -25 -12 0
v -26 -13 0
v -27 -13 0
v -27 -12 0
v -26 -12 0
v -27 -13 0
v -28 -13 0
v -28 -12 0
v -27 -12 0
v -28 -13 0
v -29 -13 0
v -29 -12 0
v -28 -12 0
v -29 -13 0
v -30 -13 0
v -30 -12 0
v -29 -12 0
v -30 -13 0
v -31 -13 0
v -31 -12 0
v -30 -12 0
v -31 -13 0
v -32 -13 0
v -32 -12 0
v -31 -12 0
v -32 -13 0
v -33 -13 0
v -33 -12 0
v -32 -12 0
v -2 -18 0
v -3 -18 0
v -3 -17 0
v -2 -17 0
v -3 -18 0
v -4 -18 0
v -4 -17 0
v -3 -17 0
v -4 -18 0
v -5 -18 0
v -5 -17 0
v -4 -17 0
v -5 -18 0
v -6 -18 0
v -6 -17 0
v -5 -17 0
v -6 -18 0
v -7 -18 0
v -7 -17 0
v -6 -17 0
v -7 -18 0
v -8 -18 0
v -8 -17 0
v -7 -17 0
v -8 -18 0
v -9 -18 0
v -9 -17 0
v -8 -17 0
v -9 -18 0
v -10 -18 0
v -10 -17 0
v -9 -17 0
v -15 -18 0
v -16 -18 0
v -16 -17 0
v -15 -17 0
v -16 -18 0
v -17 -18 0
v -17 -17 0
v -16 -17 0
v -17 -18 0
v -18 -18 0
v -18 -17 0
v -17 -17 0
v -18 -18 0
v -19 -18 0
v -19 -17 0
v -18 -17 0
v -19 -18 0
v -20 -18 0
v -20 -17 0
v -19 -17 0
v -25 -18 0
v -26 -18 0
v -26 -17 0
v -25 -17 0
v -26 -18 0
v -27 -18 0
v -27 -17 0
v -26 -17 0
v -27 -18 0
v -28 -18 0
v -28 -17 0
v -27 -17 0
v -28 -18 0
v -29 -18 0
v -29 -17 0
v -28 -17 0
v -29 -18 0
v -30 -18 0
v -30 -17 0
v -29 -17 0
v -30 -18 0
v -31 -18 0
v -31 -17 0
v -30 -17 0
v -31 -18 0
v -32 -18 0
v -32 -17 0
v -31 -17 0
v -32 -18 0
v -33 -18 0
v -33 -17 0
v -32 -17 0
v -2 -22 0
v -3 -22 0
v -3 -21 0
v -2 -21 0
v -3 -22 0
v -4 -22 0
v -4 -21 0
v -3 -21 0
v -4 -22 0
v -5 -22 0
v -5 -21 0
v -4 -21 0
v -5 -22 0
v -6 -22 0
v -6 -21 0
v -5 -21 0
v -6 -22 0
v -7 -22 0
v -7 -21 0
v -6 -21 0
v -7 -22 0
v -8 -22 0
v -8 -21 0
v -7 -21 0
v -8 -22 0
v -9 -22 0
v -9 -21 0
v -8 -21 0
v -9 -22 0
v -10 -22 0
v -10 -21 0
v -9 -21 0
v -10 -22 0
v -11 -22 0
v -11 -21 0
v -10 -21 0
v -11 -22 0
v -12 -22 0
v -12 -21 0
v -11 -21 0
v -12 -22 0
v -13 -22 0
v -13 -21 0
v -12 -21 0
v -13 -22 0
v -14 -22 0
v -14 -21 0
v -13 -21 0
v -14 -22 0
v -15 -22 0
v -15 -21 0
v -14 -21 0
v -15 -22 0
v -16 -22 0
v -16 -21 0
v -15 -21 0
v -16 -22 0
v -17 -22 0
v -17 -21 0
v -16 -21 0
v -17 -22 0
v -18 -22 0
v -18 -21 0
v -17 -21 0
v -18 -22 0
v -19 -22 0
v -19 -21 0
v -18 -21 0
v -19 -22 0
v -20 -22 0
v -20 -21 0
v -19 -21 0
v -20 -22 0
v -21 -22 0
v -21 -21 0
v -20 -21 0
v -21 -22 0
v -22 -22 0
v -22 -21 0
v -21 -21 0
v -22 -22 0
v -23 -22 0
v -23 -21 0
v -22 -21 0
v -23 -22 0
v -24 -22 0
v -24 -21 0
v -23 -21 0
v -24 -22 0
v -25 -22 0
v -25 -21 0
v -24 -21 0
v -25 -22 0
v -26 -22 0
v -26 -21 0
v -25 -21 0
v -26 -22 0
v -27 -22 0
v -27 -21 0
v -26 -21 0
v -27 -22 0
v -28 -22 0
v -28 -21 0
v -27 -21 0
v -28 -22 0
v -29 -22 0
v -29 -21 0
v -28 -21 0
v -29 -22 0
v -30 -22 0
v -30 -21 0
v -29 -21 0
v -30 -22 0
v -31 -22 0
v -31 -21 0
v -30 -21 0
v -31 -22 0
v -32 -22 0
v -32 -21 0
v -31 -21 0
v -32 -22 0
v -33 -22 0
v -33 -21 0
v -32 -21 0

# Texture cooridinates (Count = 4)
vt 0.625 0.5
vt 0.5 0.5
vt 0.5 0.375
vt 0.625 0.375

# Normal
vn 0 0 -1

# Mesh description
g lvl2_00_mesh_0003

# Faces
f 1/1/1 2/2/1 3/3/1 4/4/1
f 5/1/1 6/2/1 7/3/1 8/4/1
f 9/1/1 10/2/1 11/3/1 12/4/1
f 13/1/1 14/2/1 15/3/1 16/4/1
f 17/1/1 18/2/1 19/3/1 20/4/1
f 21/1/1 22/2/1 23/3/1 24/4/1
f 25/1/1 26/2/1 27/3/1 28/4/1
f 29/1/1 30/2/1 31/3/1 32/4/1
f 33/1/1 34/2/1 35/3/1 36/4/1
f 37/1/1 38/2/1 39/3/1 40/4/1
f 41/1/1 42/2/1 43/3/1 44/4/1
f 45/1/1 46/2/1 47/3/1 48/4/1
f 49/1/1 50/2/1 51/3/1 52/4/1
f 53/1/1 54/2/1 55/3/1 56/4/1
f 57/1/1 58/2/1 59/3/1 60/4/1
f 61/1/1 62/2/1 63/3/1 64/4/1
f 65/1/1 66/2/1 67/3/1 68/4/1
f 69/1/1 70/2/1 71/3/1 72/4/1
f 73/1/1 74/2/1 75/3/1 76/4/1
f 77/1/1 78/2/1 79/3/1 80/4/1
f 81/1/1 82/2/1 83/3/1 84/4/1
f 85/1/1 86/2/1 87/3/1 88/4/1
f 89/1/1 90/2/1 91/3/1 92/4/1
f 93/1/1 94/2/1 95/3/1 96/4/1
f 97/1/1 98/2/1 99/3/1 100/4/1
f 101/1/1 102/2/1 103/3/1 104/4/1
f 105/1/1 106/2/1 107/3/1 108/4/1
f 109/1/1 110/2/1 111/3/1 112/4/1
f 113/1/1 114/2/1 115/3/1 116/4/1
f 117/1/1 118/2/1 119/3/1 120/4/1
f 121/1/1 122/2/1 123/3/1 124/4/1
f 125/3/1 126/4/1 127/1/1 128/2/1
f 129/3/1 130/4/1 131/1/1 132/2/1
f 133/3/1 134/4/1 135/1/1 136/2/1
f 137/3/1 138/4/1 139/1/1 140/2/1
f 141/3/1 142/4/1 143/1/1 144/2/1
f 145/3/1 146/4/1 147/1/1 148/2/1
f 149/3/1 150/4/1 151/1/1 152/2/1
f 153/3/1 154/4/1 155/1/1 156/2/1
f 157/3/1 158/4/1 159/1/1 160/2/1
f 161/3/1 162/4/1 163/1/1 164/2/1
f 165/3/1 166/4/1 167/1/1 168/2/1
f 169/3/1 170/4/1 171/1/1 172/2/1
f 173/3/1 174/4/1 175/1/1 176/2/1
f 177/3/1 178/4/1 179/1/1 180/2/1
f 181/3/1 182/4/1 183/1/1 184/2/1
f 185/3/1 186/4/1 187/1/1 188/2/1
f 189/3/1 190/4/1 191/1/1 192/2/1
f 193/3/1 194/4/1 195/1/1 196/2/1
f 197/3/1 198/4/1 199/1/1 200/2/1
f 201/3/1 202/4/1 203/1/1 204/2/1
f 205/3/1 206/4/1 207/1/1 208/2/1
f 209/3/1 210/4/1 211/1/1 212/2/1
f 213/3/1 214/4/1 215/1/1 216/2/1
f 217/3/1 218/4/1 219/1/1 220/2/1
f 221/3/1 222/4/1 223/1/1 224/2/1
f 225/3/1 226/4/1 227/1/1 228/2/1
f 229/3/1 230/4/1 231/1/1 232/2/1
f 233/3/1 234/4/1 235/1/1 236/2/1
f 237/3/1 238/4/1 239/1/1 240/2/1
f 241/3/1 242/4/1 243/1/1 244/2/1
f 245/3/1 246/4/1 247/1/1 248/2/1
f 249/3/1 250/4/1 251/1/1 252/2/1
f 253/3/1 254/4/1 255/1/1 256/2/1
f 257/3/1 258/4/1 259/1/1 260/2/1
f 261/3/1 262/4/1 263/1/1 264/2/1
f 265/3/1 266/4/1 267/1/1 268/2/1
f 269/3/1 270/4/1 271/1/1 272/2/1
f 273/3/1 274/4/1 275/1/1 276/2/1
f 277/3/1 278/4/1 279/1/1 280/2/1
f 281/3/1 282/4/1 283/1/1 284/2/1
f 285/3/1 286/4/1 287/1/1 288/2/1
f 289/3/1 290/4/1 291/1/1 292/2/1
f 293/3/1 294/4/1 295/1/1 296/2/1
f 297/3/1 298/4/1 299/1/1 300/2/1
f 301/3/1 302/4/1 303/1/1 304/2/1
f 305/3/1 306/4/1 307/1/1 308/2/1
f 309/3/1 310/4/1 311/1/1 312/2/1
f 313/3/1 314/4/1 315/1/1 316/2/1
f 317/3/1 318/4/1 319/1/1 320/2/1
f 321/3/1 322/4/1 323/1/1 324/2/1
f 325/3/1 326/4/1 327/1/1 328/2/1
f 329/3/1 330/4/1 331/1/1 332/2/1
f 333/3/1 334/4/1 335/1/1 336/2/1
f 337/3/1 338/4/1 339/1/1 340/2/1
f 341/3/1 342/4/1 343/1/1 344/2/1
f 345/3/1 346/4/1 347/1/1 348/2/1
f 349/3/1 350/4/1 351/1/1 352/2/1
f 353/3/1 354/4/1 355/1/1 356/2/1
f 357/3/1 358/4/1 359/1/1 360/2/1
f 361/3/1 362/4/1 363/1/1 364/2/1
f 365/3/1 366/4/1 367/1/1 368/2/1
f 369/3/1 370/4/1 371/1/1 372/2/1
f 373/3/1 374/4/1 375/1/1 376/2/1
f 377/3/1 378/4/1 379/1/1 380/2/1
f 381/3/1 382/4/1 383/1/1 384/2/1
f 385/3/1 386/4/1 387/1/1 388/2/1
f 389/3/1 390/4/1 391/1/1 392/2/1
f 393/3/1 394/4/1 395/1/1 396/2/1
f 397/3/1 398/4/1 399/1/1 400/2/1
f 401/3/1 402/4/1 403/1/1 404/2/1
f 405/3/1 406/4/1 407/1/1 408/2/1
f 409/3/1 410/4/1 411/1/1 412/2/1
f 413/3/1 414/4/1 415/1/1 416/2/1
f 417/3/1 418/4/1 419/1/1 420/2/1
f 421/3/1 422/4/1 423/1/1 424/2/1
f 425/3/1 426/4/1 427/1/1 428/2/1
f 429/3/1 430/4/1 431/1/1 432/2/1
f 433/3/1 434/4/1 435/1/1 436/2/1
f 437/3/1 438/4/1 439/1/1 440/2/1
f 441/3/1 442/4/1 443/1/1 444/2/1
f 445/3/1 446/4/1 447/1/1 448/2/1
f 449/3/1 450/4/1 451/1/1 452/2/1
f 453/3/1 454/4/1 455/1/1 456/2/1
f 457/3/1 458/4/1 459/1/1 460/2/1
f 461/3/1 462/4/1 463/1/1 464/2/1
f 465/3/1 466/4/1 467/1/1 468/2/1
f 469/3/1 470/4/1 471/1/1 472/2/1
f 473/3/1 474/4/1 475/1/1 476/2/1
f 477/3/1 478/4/1 479/1/1 480/2/1
f 481/3/1 482/4/1 483/1/1 484/2/1
f 485/3/1 486/4/1 487/1/1 488/2/1
f 489/3/1 490/4/1 491/1/1 492/2/1
f 493/3/1 494/4/1 495/1/1 496/2/1
f 497/3/1 498/4/1 499/1/1 500/2/1

