# Tiled2Unity generated file. Do not modify by hand.
# Wavefront file for 'lvl2_00_mesh_0004.obj'

# Vertices (Count = 48)
v -1 -2 0
v -2 -2 0
v -2 -1 0
v -1 -1 0
v -33 -2 0
v -34 -2 0
v -34 -1 0
v -33 -1 0
v -1 -3 0
v -2 -3 0
v -2 -2 0
v -1 -2 0
v -33 -3 0
v -34 -3 0
v -34 -2 0
v -33 -2 0
v -1 -4 0
v -2 -4 0
v -2 -3 0
v -1 -3 0
v -33 -4 0
v -34 -4 0
v -34 -3 0
v -33 -3 0
v -1 -22 0
v -2 -22 0
v -2 -21 0
v -1 -21 0
v -33 -22 0
v -34 -22 0
v -34 -21 0
v -33 -21 0
v -1 -23 0
v -2 -23 0
v -2 -22 0
v -1 -22 0
v -33 -23 0
v -34 -23 0
v -34 -22 0
v -33 -22 0
v -1 -24 0
v -2 -24 0
v -2 -23 0
v -1 -23 0
v -33 -24 0
v -34 -24 0
v -34 -23 0
v -33 -23 0

# Texture cooridinates (Count = 4)
vt 0.75 0.625
vt 0.875 0.625
vt 0.875 0.75
vt 0.75 0.75

# Normal
vn 0 0 -1

# Mesh description
g lvl2_00_mesh_0004

# Faces
f 1/1/1 2/2/1 3/3/1 4/4/1
f 5/1/1 6/2/1 7/3/1 8/4/1
f 9/1/1 10/2/1 11/3/1 12/4/1
f 13/1/1 14/2/1 15/3/1 16/4/1
f 17/1/1 18/2/1 19/3/1 20/4/1
f 21/1/1 22/2/1 23/3/1 24/4/1
f 25/1/1 26/2/1 27/3/1 28/4/1
f 29/1/1 30/2/1 31/3/1 32/4/1
f 33/1/1 34/2/1 35/3/1 36/4/1
f 37/1/1 38/2/1 39/3/1 40/4/1
f 41/1/1 42/2/1 43/3/1 44/4/1
f 45/1/1 46/2/1 47/3/1 48/4/1

