# Tiled2Unity generated file. Do not modify by hand.
# Wavefront file for 'level2_mesh_0008.obj'

# Vertices (Count = 220)
v -26 -17 0
v -27 -17 0
v -27 -16 0
v -26 -16 0
v -27 -17 0
v -28 -17 0
v -28 -16 0
v -27 -16 0
v -28 -17 0
v -29 -17 0
v -29 -16 0
v -28 -16 0
v -29 -17 0
v -30 -17 0
v -30 -16 0
v -29 -16 0
v -30 -17 0
v -31 -17 0
v -31 -16 0
v -30 -16 0
v -31 -17 0
v -32 -17 0
v -32 -16 0
v -31 -16 0
v -32 -17 0
v -33 -17 0
v -33 -16 0
v -32 -16 0
v -33 -17 0
v -34 -17 0
v -34 -16 0
v -33 -16 0
v -39 -17 0
v -40 -17 0
v -40 -16 0
v -39 -16 0
v -40 -17 0
v -41 -17 0
v -41 -16 0
v -40 -16 0
v -41 -17 0
v -42 -17 0
v -42 -16 0
v -41 -16 0
v -42 -17 0
v -43 -17 0
v -43 -16 0
v -42 -16 0
v -43 -17 0
v -44 -17 0
v -44 -16 0
v -43 -16 0
v -44 -17 0
v -45 -17 0
v -45 -16 0
v -44 -16 0
v -45 -17 0
v -46 -17 0
v -46 -16 0
v -45 -16 0
v -46 -17 0
v -47 -17 0
v -47 -16 0
v -46 -16 0
v -51 -17 0
v -52 -17 0
v -52 -16 0
v -51 -16 0
v -52 -17 0
v -53 -17 0
v -53 -16 0
v -52 -16 0
v -53 -17 0
v -54 -17 0
v -54 -16 0
v -53 -16 0
v -54 -17 0
v -55 -17 0
v -55 -16 0
v -54 -16 0
v -58 -20 0
v -59 -20 0
v -59 -19 0
v -58 -19 0
v -59 -20 0
v -60 -20 0
v -60 -19 0
v -59 -19 0
v -60 -20 0
v -61 -20 0
v -61 -19 0
v -60 -19 0
v -61 -20 0
v -62 -20 0
v -62 -19 0
v -61 -19 0
v -62 -20 0
v -63 -20 0
v -63 -19 0
v -62 -19 0
v -63 -20 0
v -64 -20 0
v -64 -19 0
v -63 -19 0
v -64 -20 0
v -65 -20 0
v -65 -19 0
v -64 -19 0
v -65 -20 0
v -66 -20 0
v -66 -19 0
v -65 -19 0
v -66 -20 0
v -67 -20 0
v -67 -19 0
v -66 -19 0
v -67 -20 0
v -68 -20 0
v -68 -19 0
v -67 -19 0
v -68 -20 0
v -69 -20 0
v -69 -19 0
v -68 -19 0
v -69 -20 0
v -70 -20 0
v -70 -19 0
v -69 -19 0
v -70 -20 0
v -71 -20 0
v -71 -19 0
v -70 -19 0
v -71 -20 0
v -72 -20 0
v -72 -19 0
v -71 -19 0
v -72 -20 0
v -73 -20 0
v -73 -19 0
v -72 -19 0
v -73 -20 0
v -74 -20 0
v -74 -19 0
v -73 -19 0
v -74 -20 0
v -75 -20 0
v -75 -19 0
v -74 -19 0
v -75 -20 0
v -76 -20 0
v -76 -19 0
v -75 -19 0
v -76 -20 0
v -77 -20 0
v -77 -19 0
v -76 -19 0
v -77 -20 0
v -78 -20 0
v -78 -19 0
v -77 -19 0
v -78 -20 0
v -79 -20 0
v -79 -19 0
v -78 -19 0
v -79 -20 0
v -80 -20 0
v -80 -19 0
v -79 -19 0
v -80 -20 0
v -81 -20 0
v -81 -19 0
v -80 -19 0
v -81 -20 0
v -82 -20 0
v -82 -19 0
v -81 -19 0
v -82 -20 0
v -83 -20 0
v -83 -19 0
v -82 -19 0
v -83 -20 0
v -84 -20 0
v -84 -19 0
v -83 -19 0
v -84 -20 0
v -85 -20 0
v -85 -19 0
v -84 -19 0
v -85 -20 0
v -86 -20 0
v -86 -19 0
v -85 -19 0
v -86 -20 0
v -87 -20 0
v -87 -19 0
v -86 -19 0
v -87 -20 0
v -88 -20 0
v -88 -19 0
v -87 -19 0
v -88 -20 0
v -89 -20 0
v -89 -19 0
v -88 -19 0
v -89 -20 0
v -90 -20 0
v -90 -19 0
v -89 -19 0
v -90 -20 0
v -91 -20 0
v -91 -19 0
v -90 -19 0
v -91 -20 0
v -92 -20 0
v -92 -19 0
v -91 -19 0
v -92 -20 0
v -93 -20 0
v -93 -19 0
v -92 -19 0

# Texture cooridinates (Count = 8)
vt 0.625 0.5
vt 0.75 0.5
vt 0.75 0.625
vt 0.625 0.625
vt 0.875 0.5
vt 0.875 0.625
vt 1 0.5
vt 1 0.625

# Normal
vn 0 0 -1

# Mesh description
g level2_mesh_0008

# Faces
f 1/1/1 2/2/1 3/3/1 4/4/1
f 5/2/1 6/5/1 7/6/1 8/3/1
f 9/2/1 10/5/1 11/6/1 12/3/1
f 13/5/1 14/7/1 15/8/1 16/6/1
f 17/1/1 18/2/1 19/3/1 20/4/1
f 21/2/1 22/5/1 23/6/1 24/3/1
f 25/2/1 26/5/1 27/6/1 28/3/1
f 29/5/1 30/7/1 31/8/1 32/6/1
f 33/1/1 34/2/1 35/3/1 36/4/1
f 37/2/1 38/5/1 39/6/1 40/3/1
f 41/2/1 42/5/1 43/6/1 44/3/1
f 45/5/1 46/7/1 47/8/1 48/6/1
f 49/1/1 50/2/1 51/3/1 52/4/1
f 53/2/1 54/5/1 55/6/1 56/3/1
f 57/2/1 58/5/1 59/6/1 60/3/1
f 61/5/1 62/7/1 63/8/1 64/6/1
f 65/1/1 66/2/1 67/3/1 68/4/1
f 69/2/1 70/5/1 71/6/1 72/3/1
f 73/2/1 74/5/1 75/6/1 76/3/1
f 77/5/1 78/7/1 79/8/1 80/6/1
f 81/1/1 82/2/1 83/3/1 84/4/1
f 85/2/1 86/5/1 87/6/1 88/3/1
f 89/2/1 90/5/1 91/6/1 92/3/1
f 93/2/1 94/5/1 95/6/1 96/3/1
f 97/2/1 98/5/1 99/6/1 100/3/1
f 101/2/1 102/5/1 103/6/1 104/3/1
f 105/2/1 106/5/1 107/6/1 108/3/1
f 109/2/1 110/5/1 111/6/1 112/3/1
f 113/2/1 114/5/1 115/6/1 116/3/1
f 117/2/1 118/5/1 119/6/1 120/3/1
f 121/2/1 122/5/1 123/6/1 124/3/1
f 125/2/1 126/5/1 127/6/1 128/3/1
f 129/5/1 130/7/1 131/8/1 132/6/1
f 133/1/1 134/2/1 135/3/1 136/4/1
f 137/2/1 138/5/1 139/6/1 140/3/1
f 141/2/1 142/5/1 143/6/1 144/3/1
f 145/2/1 146/5/1 147/6/1 148/3/1
f 149/2/1 150/5/1 151/6/1 152/3/1
f 153/2/1 154/5/1 155/6/1 156/3/1
f 157/2/1 158/5/1 159/6/1 160/3/1
f 161/2/1 162/5/1 163/6/1 164/3/1
f 165/2/1 166/5/1 167/6/1 168/3/1
f 169/2/1 170/5/1 171/6/1 172/3/1
f 173/2/1 174/5/1 175/6/1 176/3/1
f 177/5/1 178/7/1 179/8/1 180/6/1
f 181/1/1 182/2/1 183/3/1 184/4/1
f 185/2/1 186/5/1 187/6/1 188/3/1
f 189/2/1 190/5/1 191/6/1 192/3/1
f 193/2/1 194/5/1 195/6/1 196/3/1
f 197/2/1 198/5/1 199/6/1 200/3/1
f 201/2/1 202/5/1 203/6/1 204/3/1
f 205/2/1 206/5/1 207/6/1 208/3/1
f 209/2/1 210/5/1 211/6/1 212/3/1
f 213/2/1 214/5/1 215/6/1 216/3/1
f 217/5/1 218/7/1 219/8/1 220/6/1

