# Tiled2Unity generated file. Do not modify by hand.
# Wavefront file for 'level2_mesh_0005.obj'

# Vertices (Count = 12)
v -58 -20 0
v -59 -20 0
v -59 -19 0
v -58 -19 0
v -59 -20 0
v -60 -20 0
v -60 -19 0
v -59 -19 0
v -60 -20 0
v -61 -20 0
v -61 -19 0
v -60 -19 0

# Texture cooridinates (Count = 4)
vt 0.5 0.375
vt 0.625 0.375
vt 0.625 0.5
vt 0.5 0.5

# Normal
vn 0 0 -1

# Mesh description
g level2_mesh_0005

# Faces
f 1/1/1 2/2/1 3/3/1 4/4/1
f 5/1/1 6/2/1 7/3/1 8/4/1
f 9/1/1 10/2/1 11/3/1 12/4/1

