# Tiled2Unity generated file. Do not modify by hand.
# Wavefront file for 'lvl1_07_mesh_0004.obj'

# Vertices (Count = 156)
v -1 -19 0
v -2 -19 0
v -2 -18 0
v -1 -18 0
v -2 -19 0
v -3 -19 0
v -3 -18 0
v -2 -18 0
v -3 -19 0
v -4 -19 0
v -4 -18 0
v -3 -18 0
v -4 -19 0
v -5 -19 0
v -5 -18 0
v -4 -18 0
v -5 -19 0
v -6 -19 0
v -6 -18 0
v -5 -18 0
v -6 -19 0
v -7 -19 0
v -7 -18 0
v -6 -18 0
v -18 -19 0
v -19 -19 0
v -19 -18 0
v -18 -18 0
v -19 -19 0
v -20 -19 0
v -20 -18 0
v -19 -18 0
v -20 -19 0
v -21 -19 0
v -21 -18 0
v -20 -18 0
v -21 -19 0
v -22 -19 0
v -22 -18 0
v -21 -18 0
v -22 -19 0
v -23 -19 0
v -23 -18 0
v -22 -18 0
v -23 -19 0
v -24 -19 0
v -24 -18 0
v -23 -18 0
v -3 -12 0
v -4 -12 0
v -4 -11 0
v -3 -11 0
v -4 -12 0
v -5 -12 0
v -5 -11 0
v -4 -11 0
v -5 -12 0
v -6 -12 0
v -6 -11 0
v -5 -11 0
v -19 -12 0
v -20 -12 0
v -20 -11 0
v -19 -11 0
v -20 -12 0
v -21 -12 0
v -21 -11 0
v -20 -11 0
v -21 -12 0
v -22 -12 0
v -22 -11 0
v -21 -11 0
v -11 -11 0
v -12 -11 0
v -12 -10 0
v -11 -10 0
v -12 -11 0
v -13 -11 0
v -13 -10 0
v -12 -10 0
v -13 -11 0
v -14 -11 0
v -14 -10 0
v -13 -10 0
v -5 -9 0
v -6 -9 0
v -6 -8 0
v -5 -8 0
v -6 -9 0
v -7 -9 0
v -7 -8 0
v -6 -8 0
v -7 -9 0
v -8 -9 0
v -8 -8 0
v -7 -8 0
v -17 -9 0
v -18 -9 0
v -18 -8 0
v -17 -8 0
v -18 -9 0
v -19 -9 0
v -19 -8 0
v -18 -8 0
v -19 -9 0
v -20 -9 0
v -20 -8 0
v -19 -8 0
v -1 -2 0
v -2 -2 0
v -2 -1 0
v -1 -1 0
v -2 -2 0
v -3 -2 0
v -3 -1 0
v -2 -1 0
v -3 -2 0
v -4 -2 0
v -4 -1 0
v -3 -1 0
v -4 -2 0
v -5 -2 0
v -5 -1 0
v -4 -1 0
v -5 -2 0
v -6 -2 0
v -6 -1 0
v -5 -1 0
v -6 -2 0
v -7 -2 0
v -7 -1 0
v -6 -1 0
v -18 -2 0
v -19 -2 0
v -19 -1 0
v -18 -1 0
v -19 -2 0
v -20 -2 0
v -20 -1 0
v -19 -1 0
v -20 -2 0
v -21 -2 0
v -21 -1 0
v -20 -1 0
v -21 -2 0
v -22 -2 0
v -22 -1 0
v -21 -1 0
v -22 -2 0
v -23 -2 0
v -23 -1 0
v -22 -1 0
v -23 -2 0
v -24 -2 0
v -24 -1 0
v -23 -1 0

# Texture cooridinates (Count = 19)
vt 0.75 0.625
vt 0.875 0.625
vt 0.875 0.75
vt 0.75 0.75
vt 0 0.75
vt 0.125 0.75
vt 0.125 0.875
vt 0 0.875
vt 0.25 0.75
vt 0.25 0.875
vt 0.375 0.75
vt 0.375 0.875
vt 0.5 0.875
vt 0.5 1
vt 0.375 1
vt 0.625 0.875
vt 0.625 1
vt 0.75 0.875
vt 0.75 1

# Normal
vn 0 0 -1

# Mesh description
g lvl1_07_mesh_0004

# Faces
f 1/1/1 2/2/1 3/3/1 4/4/1
f 5/1/1 6/2/1 7/3/1 8/4/1
f 9/1/1 10/2/1 11/3/1 12/4/1
f 13/1/1 14/2/1 15/3/1 16/4/1
f 17/1/1 18/2/1 19/3/1 20/4/1
f 21/1/1 22/2/1 23/3/1 24/4/1
f 25/1/1 26/2/1 27/3/1 28/4/1
f 29/1/1 30/2/1 31/3/1 32/4/1
f 33/1/1 34/2/1 35/3/1 36/4/1
f 37/1/1 38/2/1 39/3/1 40/4/1
f 41/1/1 42/2/1 43/3/1 44/4/1
f 45/1/1 46/2/1 47/3/1 48/4/1
f 49/5/1 50/6/1 51/7/1 52/8/1
f 53/6/1 54/9/1 55/10/1 56/7/1
f 57/9/1 58/11/1 59/12/1 60/10/1
f 61/12/1 62/13/1 63/14/1 64/15/1
f 65/13/1 66/16/1 67/17/1 68/14/1
f 69/16/1 70/18/1 71/19/1 72/17/1
f 73/5/1 74/6/1 75/7/1 76/8/1
f 77/6/1 78/9/1 79/10/1 80/7/1
f 81/9/1 82/11/1 83/12/1 84/10/1
f 85/12/1 86/13/1 87/14/1 88/15/1
f 89/13/1 90/16/1 91/17/1 92/14/1
f 93/16/1 94/18/1 95/19/1 96/17/1
f 97/5/1 98/6/1 99/7/1 100/8/1
f 101/6/1 102/9/1 103/10/1 104/7/1
f 105/9/1 106/11/1 107/12/1 108/10/1
f 109/1/1 110/2/1 111/3/1 112/4/1
f 113/1/1 114/2/1 115/3/1 116/4/1
f 117/1/1 118/2/1 119/3/1 120/4/1
f 121/1/1 122/2/1 123/3/1 124/4/1
f 125/1/1 126/2/1 127/3/1 128/4/1
f 129/1/1 130/2/1 131/3/1 132/4/1
f 133/1/1 134/2/1 135/3/1 136/4/1
f 137/1/1 138/2/1 139/3/1 140/4/1
f 141/1/1 142/2/1 143/3/1 144/4/1
f 145/1/1 146/2/1 147/3/1 148/4/1
f 149/1/1 150/2/1 151/3/1 152/4/1
f 153/1/1 154/2/1 155/3/1 156/4/1

